<?xml version="1.0" encoding="UTF-8" standalone="no"?>
<!-- Created with Inkscape (http://www.inkscape.org/) -->

<svg
   width="161mm"
   height="86mm"
   viewBox="0 0 161 86"
   version="1.1"
   id="svg5"
   inkscape:version="1.4.2 (f4327f4, 2025-05-13)"
   sodipodi:docname="1d-integration.svg"
   xmlns:inkscape="http://www.inkscape.org/namespaces/inkscape"
   xmlns:sodipodi="http://sodipodi.sourceforge.net/DTD/sodipodi-0.dtd"
   xmlns="http://www.w3.org/2000/svg"
   xmlns:svg="http://www.w3.org/2000/svg">
  <sodipodi:namedview
     id="namedview7"
     pagecolor="#ffffff"
     bordercolor="#000000"
     borderopacity="0.25"
     inkscape:showpageshadow="2"
     inkscape:pageopacity="0.0"
     inkscape:pagecheckerboard="0"
     inkscape:deskcolor="#d1d1d1"
     inkscape:document-units="mm"
     showgrid="true"
     inkscape:zoom="1.471689"
     inkscape:cx="211.32182"
     inkscape:cy="187.19988"
     inkscape:window-width="1920"
     inkscape:window-height="1111"
     inkscape:window-x="-9"
     inkscape:window-y="-9"
     inkscape:window-maximized="1"
     inkscape:current-layer="layer1">
    <inkscape:grid
       id="grid4"
       units="mm"
       originx="0.49999998"
       originy="5.5000001"
       spacingx="1.25"
       spacingy="1.25"
       empcolor="#0099e5"
       empopacity="0.30196078"
       color="#0099e5"
       opacity="0.14901961"
       empspacing="4"
       enabled="true"
       visible="true" />
  </sodipodi:namedview>
  <defs
     id="defs2" />
  <g
     inkscape:label="Layer 1"
     inkscape:groupmode="layer"
     id="layer1"
     transform="translate(-44.5,0.49999908)">
    <rect
       style="fill:#00ff00;fill-opacity:0.3;stroke:#000000;stroke-width:0.148432;stroke-dasharray:none;stroke-opacity:1"
       id="rect5"
       width="40.037342"
       height="50.901024"
       x="110.02422"
       y="24.074762" />
    <path
       style="fill:#ffffff;stroke:#0000ff;stroke-width:0.3;stroke-dasharray:none;stroke-opacity:1"
       d="m 150,75 1e-5,-69.9999991"
       id="path2136"
       sodipodi:nodetypes="cc" />
    <path
       style="fill:#ffffff;stroke:#0000ff;stroke-width:0.3;stroke-dasharray:none;stroke-opacity:1"
       d="m 84.921406,75 0.0786,-69.9999991"
       id="path2134"
       sodipodi:nodetypes="cc" />
    <circle
       style="fill:#000000;fill-opacity:1;stroke:#000000;stroke-width:0.3;stroke-dasharray:none;stroke-opacity:1"
       id="path2190"
       cx="110"
       cy="13.750001"
       r="1.25" />
    <circle
       style="fill:#000000;fill-opacity:1;stroke:#000000;stroke-width:0.3;stroke-dasharray:none;stroke-opacity:1"
       id="path2190-4"
       cx="189.87288"
       cy="54.703629"
       r="1.25" />
    <path
       style="fill:#000000;fill-opacity:1;stroke:#000000;stroke-width:0.3;stroke-dasharray:0.3, 0.9;stroke-dashoffset:0;stroke-opacity:1"
       d="m 60.000001,70 v 5"
       id="path5733" />
    <path
       style="fill:#000000;fill-opacity:1;stroke:#000000;stroke-width:0.57735;stroke-dasharray:0.57735, 1.73205;stroke-dashoffset:0;stroke-opacity:1"
       d="m 110,15.000001 v 60"
       id="path5735" />
    <path
       style="fill:#000000;fill-opacity:1;stroke:#000000;stroke-width:0.3;stroke-dasharray:0.30000001,0.90000004;stroke-dashoffset:0;stroke-opacity:1"
       d="M 190.00001,56.250001 V 75"
       id="path5737"
       sodipodi:nodetypes="cc" />
    <text
       xml:space="preserve"
       style="font-size:3.52777px;fill:#000000;fill-opacity:1;stroke:#000000;stroke-width:0;stroke-dasharray:none;stroke-dashoffset:0;stroke-opacity:1"
       x="60"
       y="80"
       id="text5793"><tspan
         sodipodi:role="line"
         id="tspan5791"
         style="stroke-width:0;stroke-dasharray:none"
         x="60"
         y="80">$x_{i-1}$</tspan></text>
    <text
       xml:space="preserve"
       style="font-size:3.52777px;fill:#000000;fill-opacity:1;stroke:#000000;stroke-width:0;stroke-dasharray:none;stroke-dashoffset:0;stroke-opacity:1"
       x="85"
       y="80"
       id="text5793-4"><tspan
         sodipodi:role="line"
         id="tspan5791-0"
         style="stroke-width:0;stroke-dasharray:none"
         x="85"
         y="80">$x_{i-\frac12}$</tspan></text>
    <text
       xml:space="preserve"
       style="font-size:3.52777px;fill:#000000;fill-opacity:1;stroke:#000000;stroke-width:0;stroke-dasharray:none;stroke-dashoffset:0;stroke-opacity:1"
       x="148.75"
       y="80"
       id="text5793-3"><tspan
         sodipodi:role="line"
         id="tspan5791-56"
         style="stroke-width:0;stroke-dasharray:none"
         x="148.75"
         y="80">$x_{i+\frac12}$</tspan></text>
    <text
       xml:space="preserve"
       style="font-size:3.52777px;fill:#000000;fill-opacity:1;stroke:#000000;stroke-width:0;stroke-dasharray:none;stroke-dashoffset:0;stroke-opacity:1"
       x="110"
       y="80"
       id="text5793-8"><tspan
         sodipodi:role="line"
         id="tspan5791-1"
         style="stroke-width:0;stroke-dasharray:none"
         x="110"
         y="80">$x_{i}$</tspan></text>
    <text
       xml:space="preserve"
       style="font-size:3.52777px;fill:#000000;fill-opacity:1;stroke:#000000;stroke-width:0;stroke-dasharray:none;stroke-dashoffset:0;stroke-opacity:1"
       x="190"
       y="80"
       id="text5793-1"><tspan
         sodipodi:role="line"
         id="tspan5791-5"
         style="stroke-width:0;stroke-dasharray:none"
         x="190"
         y="80">$x_{i+1}$</tspan></text>
    <path
       style="fill:none;fill-opacity:1;stroke:#000000;stroke-width:0;stroke-dasharray:none;stroke-dashoffset:0;stroke-opacity:1"
       d="m 97.5,72.5 c 0,1.666667 0,3.333333 0,5"
       id="path7711"
       sodipodi:nodetypes="cc" />
    <rect
       style="fill:none;fill-opacity:0.3;stroke:none;stroke-width:1.165;stroke-dasharray:none;stroke-opacity:0.3"
       id="rect2"
       width="160"
       height="79.999992"
       x="45"
       y="5.000001" />
    <rect
       style="fill:none;fill-opacity:0.3;stroke:none;stroke-width:1.165;stroke-dasharray:none;stroke-opacity:0.3"
       id="rect3"
       width="55"
       height="54.999996"
       x="45"
       y="5.000001" />
    <rect
       style="fill:none;fill-opacity:0.3;stroke:none;stroke-width:1.165;stroke-dasharray:none;stroke-opacity:0.3"
       id="rect4"
       width="160"
       height="79.999992"
       x="45"
       y="5.000001" />
    <path
       style="fill:#ffffff;stroke:#000000;stroke-width:0.3;stroke-dasharray:none;stroke-opacity:1"
       d="M 50.000001,75 H 200"
       id="path238"
       sodipodi:nodetypes="cc" />
    <circle
       style="fill:#000000;fill-opacity:1;stroke:#000000;stroke-width:0.3;stroke-dasharray:none;stroke-opacity:1"
       id="path2190-1"
       cx="60"
       cy="70"
       r="1.25" />
    <path
       style="fill:none;fill-opacity:1;stroke:#00ff00;stroke-width:0.3;stroke-opacity:0.0515873"
       d="M 60.0093 69.0883 C 60.0259 69.0677 60.0426 69.078 60.0593 69.0573 C 60.0759 69.0367 60.0926 69.0469 60.1093 69.0263 C 60.126 69.0057 60.1426 69.0158 60.1593 68.9952 C 60.176 68.9746 60.1926 68.9846 60.2093 68.964 C 60.226 68.9434 60.2426 68.9533 60.2593 68.9327 C 60.276 68.9121 60.2927 68.9219 60.3093 68.9014 C 60.326 68.8808 60.3427 68.8905 60.3593 68.8699 C 60.376 68.8494 60.3927 68.859 60.4093 68.8384 C 60.426 68.8179 60.4427 68.8274 60.4594 68.8069 C 60.476 68.7863 60.4927 68.7957 60.5094 68.7752 C 60.526 68.7547 60.5427 68.764 60.5594 68.7435 C 60.576 68.723 60.5927 68.7321 60.6094 68.7117 C 60.6261 68.6912 60.6427 68.7002 60.6594 68.6798 C 60.6761 68.6593 60.6927 68.6682 60.7094 68.6478 C 60.7261 68.6274 60.7427 68.6361 60.7594 68.6158 C 60.7761 68.5954 60.7928 68.604 60.8094 68.5836 C 60.8261 68.5633 60.8428 68.5718 60.8594 68.5514 C 60.8761 68.5311 60.8928 68.5394 60.9094 68.5192 C 60.9261 68.4989 60.9428 68.507 60.9595 68.4868 C 60.9761 68.4666 60.9928 68.4746 61.0095 68.4544 C 61.0261 68.4342 61.0428 68.442 61.0595 68.4219 C 61.0762 68.4017 61.0928 68.4094 61.1095 68.3893 C 61.1262 68.3692 61.1428 68.3767 61.1595 68.3566 C 61.1762 68.3365 61.1928 68.3439 61.2095 68.3239 C 61.2262 68.3039 61.2429 68.311 61.2595 68.2911 C 61.2762 68.2711 61.2929 68.2781 61.3095 68.2582 C 61.3262 68.2382 61.3429 68.2451 61.3595 68.2252 C 61.3762 68.2053 61.3929 68.2119 61.4096 68.1921 C 61.4262 68.1723 61.4429 68.1788 61.4596 68.159 C 61.4762 68.1393 61.4929 68.1455 61.5096 68.1258 C 61.5262 68.1061 61.5429 68.1122 61.5596 68.0925 C 61.5763 68.0729 61.5929 68.0787 61.6096 68.0592 C 61.6263 68.0396 61.6429 68.0452 61.6596 68.0257 C 61.6763 68.0062 61.6929 68.0116 61.7096 67.9922 C 61.7263 67.9728 61.743 67.978 61.7596 67.9586 C 61.7763 67.9393 61.793 67.9442 61.8096 67.925 C 61.8263 67.9057 61.843 67.9104 61.8596 67.8912 C 61.8763 67.872 61.893 67.8765 61.9097 67.8574 C 61.9263 67.8382 61.943 67.8425 61.9597 67.8235 C 61.9763 67.8044 61.993 67.8085 62.0097 67.7895 C 62.0263 67.7705 62.043 67.7743 62.0597 67.7554 C 62.0764 67.7365 62.093 67.7401 62.1097 67.7213 C 62.1264 67.7025 62.143 67.7058 62.1597 67.6871 C 62.1764 67.6684 62.193 67.6715 62.2097 67.6528 C 62.2264 67.6342 62.2431 67.637 62.2597 67.6184 C 62.2764 67.5999 62.2931 67.6025 62.3097 67.584 C 62.3264 67.5655 62.3431 67.5679 62.3597 67.5495 C 62.3764 67.5311 62.3931 67.5332 62.4098 67.5149 C 62.4264 67.4966 62.4431 67.4984 62.4598 67.4802 C 62.4764 67.462 62.4931 67.4635 62.5098 67.4455 C 62.5264 67.4274 62.5431 67.4286 62.5598 67.4106 C 62.5765 67.3926 62.5931 67.3936 62.6098 67.3757 C 62.6265 67.3578 62.6431 67.3585 62.6598 67.3407 C 62.6765 67.3229 62.6931 67.3233 62.7098 67.3057 C 62.7265 67.288 62.7432 67.2881 62.7598 67.2705 C 62.7765 67.253 62.7932 67.2528 62.8098 67.2353 C 62.8265 67.2179 62.8432 67.2174 62.8598 67.2 C 62.8765 67.1827 62.8932 67.1819 62.9099 67.1646 C 62.9265 67.1474 62.9432 67.1463 62.9599 67.1292 C 62.9765 67.1121 62.9932 67.1107 63.0099 67.0937 C 63.0265 67.0767 63.0432 67.075 63.0599 67.0581 C 63.0766 67.0412 63.0932 67.0392 63.1099 67.0224 C 63.1266 67.0056 63.1432 67.0033 63.1599 66.9866 C 63.1766 66.97 63.1932 66.9673 63.2099 66.9508 C 63.2266 66.9343 63.2433 66.9313 63.2599 66.9149 C 63.2766 66.8985 63.2933 66.8952 63.3099 66.8789 C 63.3266 66.8626 63.3433 66.859 63.3599 66.8428 C 63.3766 66.8267 63.3933 66.8227 63.41 66.8067 C 63.4266 66.7906 63.4433 66.7863 63.46 66.7704 C 63.4766 66.7546 63.4933 66.7499 63.51 66.7341 C 63.5266 66.7184 63.5433 66.7134 63.56 66.6978 C 63.5767 66.6821 63.5933 66.6768 63.61 66.6613 C 63.6267 66.6458 63.6433 66.6401 63.66 66.6248 C 63.6767 66.6094 63.6933 66.6034 63.71 66.5882 C 63.7267 66.573 63.7434 66.5666 63.76 66.5515 C 63.7767 66.5364 63.7934 66.5297 63.81 66.5147 C 63.8267 66.4998 63.8434 66.4927 63.8601 66.4779 C 63.8767 66.4631 63.8934 66.4556 63.9101 66.441 C 63.9267 66.4263 63.9434 66.4185 63.9601 66.404 C 63.9767 66.3895 63.9934 66.3812 64.0101 66.3669 C 64.0268 66.3525 64.0434 66.3439 64.0601 66.3297 C 64.0768 66.3155 64.0934 66.3066 64.1101 66.2925 C 64.1268 66.2785 64.1434 66.2691 64.1601 66.2552 C 64.1768 66.2413 64.1935 66.2316 64.2101 66.2178 C 64.2268 66.2041 64.2435 66.1939 64.2601 66.1804 C 64.2768 66.1668 64.2935 66.1563 64.3101 66.1428 C 64.3268 66.1294 64.3435 66.1185 64.3602 66.1052 C 64.3768 66.0919 64.3935 66.0806 64.4102 66.0675 C 64.4268 66.0544 64.4435 66.0427 64.4602 66.0297 C 64.4768 66.0168 64.4935 66.0047 64.5102 65.9919 C 64.5269 65.9791 64.5435 65.9666 64.5602 65.954 C 64.5769 65.9413 64.5935 65.9284 64.6102 65.916 C 64.6269 65.9035 64.6435 65.8902 64.6602 65.8779 C 64.6769 65.8656 64.6936 65.8519 64.7102 65.8397 C 64.7269 65.8276 64.7436 65.8135 64.7602 65.8015 C 64.7769 65.7895 64.7936 65.775 64.8102 65.7632 C 64.8269 65.7514 64.8436 65.7364 64.8603 65.7248 C 64.8769 65.7131 64.8936 65.6978 64.9103 65.6863 C 64.9269 65.6749 64.9436 65.6591 64.9603 65.6478 C 64.9769 65.6365 64.9936 65.6203 65.0103 65.6091 C 65.027 65.598 65.0436 65.5814 65.0603 65.5705 C 65.077 65.5595 65.0936 65.5424 65.1103 65.5317 C 65.127 65.5209 65.1436 65.5034 65.1603 65.4928 C 65.177 65.4822 65.1937 65.4643 65.2103 65.4539 C 65.227 65.4435 65.2437 65.4251 65.2603 65.4149 C 65.277 65.4046 65.2937 65.3859 65.3103 65.3758 C 65.327 65.3657 65.3437 65.3465 65.3604 65.3366 C 65.377 65.3268 65.3937 65.3071 65.4104 65.2974 C 65.427 65.2877 65.4437 65.2676 65.4604 65.2581 C 65.477 65.2486 65.4937 65.228 65.5104 65.2187 C 65.5271 65.2093 65.5437 65.1883 65.5604 65.1792 C 65.5771 65.1701 65.5937 65.1486 65.6104 65.1397 C 65.6271 65.1307 65.6437 65.1088 65.6604 65.1 C 65.6771 65.0912 65.6938 65.0689 65.7104 65.0603 C 65.7271 65.0517 65.7438 65.0289 65.7604 65.0205 C 65.7771 65.0121 65.7938 64.9889 65.8104 64.9807 C 65.8271 64.9725 65.8438 64.9488 65.8605 64.9407 C 65.8771 64.9327 65.8938 64.9086 65.9105 64.9007 C 65.9271 64.8929 65.9438 64.8683 65.9605 64.8606 C 65.9771 64.853 65.9938 64.8279 66.0105 64.8205 C 66.0272 64.813 66.0438 64.7875 66.0605 64.7802 C 66.0772 64.773 66.0938 64.7469 66.1105 64.7399 C 66.1272 64.7328 66.1438 64.7064 66.1605 64.6995 C 66.1772 64.6926 66.1939 64.6657 66.2105 64.659 C 66.2272 64.6523 66.2439 64.6249 66.2605 64.6185 C 66.2772 64.612 66.2939 64.5841 66.3105 64.5778 C 66.3272 64.5715 66.3439 64.5432 66.3606 64.5371 C 66.3772 64.531 66.3939 64.5022 66.4106 64.4963 C 66.4272 64.4904 66.4439 64.4611 66.4606 64.4555 C 66.4773 64.4498 66.4939 64.42 66.5106 64.4145 C 66.5273 64.409 66.5439 64.3788 66.5606 64.3735 C 66.5773 64.3682 66.5939 64.3375 66.6106 64.3324 C 66.6273 64.3273 66.644 64.2961 66.6606 64.2912 C 66.6773 64.2863 66.694 64.2546 66.7106 64.25 C 66.7273 64.2453 66.744 64.2131 66.7606 64.2086 C 66.7773 64.2041 66.794 64.1715 66.8107 64.1672 C 66.8273 64.1629 66.844 64.1298 66.8607 64.1257 C 66.8773 64.1217 66.894 64.0881 66.9107 64.0842 C 66.9273 64.0803 66.944 64.0462 66.9607 64.0425 C 66.9774 64.0389 66.994 64.0043 67.0107 64.0008 C 67.0274 63.9973 67.044 63.9623 67.0607 63.959 C 67.0774 63.9558 67.094 63.9202 67.1107 63.9172 C 67.1274 63.9141 67.1441 63.8781 67.1607 63.8752 C 67.1774 63.8723 67.1941 63.8358 67.2107 63.8332 C 67.2274 63.8305 67.2441 63.7935 67.2607 63.7911 C 67.2774 63.7886 67.2941 63.7511 67.3108 63.7489 C 67.3274 63.7466 67.3441 63.7087 67.3608 63.7066 C 67.3774 63.7046 67.3941 63.6661 67.4108 63.6643 C 67.4274 63.6625 67.4441 63.6235 67.4608 63.6219 C 67.4775 63.6202 67.4941 63.5808 67.5108 63.5794 C 67.5275 63.578 67.5441 63.538 67.5608 63.5368 C 67.5775 63.5356 67.5941 63.4952 67.6108 63.4942 C 67.6275 63.4932 67.6442 63.4523 67.6608 63.4515 C 67.6775 63.4506 67.6942 63.4093 67.7108 63.4086 C 67.7275 63.408 67.7442 63.3662 67.7608 63.3658 C 67.7775 63.3654 67.7942 63.323 67.8109 63.3228 C 67.8275 63.3226 67.8442 63.2798 67.8609 63.2798 C 67.8775 63.2798 67.8942 63.2365 67.9109 63.2367 C 67.9275 63.2369 67.9442 63.1931 67.9609 63.1935 C 67.9776 63.1939 67.9942 63.1496 68.0109 63.1502 C 68.0276 63.1509 68.0442 63.106 68.0609 63.1069 C 68.0776 63.1077 68.0942 63.0624 68.1109 63.0635 C 68.1276 63.0645 68.1443 63.0187 68.1609 63.02 C 68.1776 63.0212 68.1943 62.9749 68.2109 62.9764 C 68.2276 62.9778 68.2443 62.9311 68.2609 62.9327 C 68.2776 62.9344 68.2943 62.8871 68.311 62.889 C 68.3276 62.8909 68.3443 62.8431 68.361 62.8452 C 68.3776 62.8473 68.3943 62.799 68.411 62.8013 C 68.4276 62.8036 68.4443 62.7549 68.461 62.7574 C 68.4777 62.7598 68.4943 62.7106 68.511 62.7133 C 68.5277 62.716 68.5443 62.6663 68.561 62.6692 C 68.5777 62.6721 68.5943 62.6219 68.611 62.625 C 68.6277 62.6281 68.6444 62.5774 68.661 62.5807 C 68.6777 62.584 68.6944 62.5329 68.711 62.5364 C 68.7277 62.5399 68.7444 62.4883 68.761 62.492 C 68.7777 62.4957 68.7944 62.4435 68.8111 62.4475 C 68.8277 62.4514 68.8444 62.3988 68.8611 62.4029 C 68.8777 62.407 68.8944 62.3539 68.9111 62.3582 C 68.9277 62.3625 68.9444 62.309 68.9611 62.3135 C 68.9778 62.318 68.9944 62.264 69.0111 62.2687 C 69.0278 62.2734 69.0444 62.2189 69.0611 62.2238 C 69.0778 62.2287 69.0945 62.1737 69.1111 62.1788 C 69.1278 62.1839 69.1445 62.1284 69.1611 62.1338 C 69.1778 62.1391 69.1945 62.0831 69.2111 62.0886 C 69.2278 62.0942 69.2445 62.0377 69.2612 62.0434 C 69.2778 62.0492 69.2945 61.9923 69.3112 61.9982 C 69.3278 62.0041 69.3445 61.9467 69.3612 61.9528 C 69.3778 61.9589 69.3945 61.9011 69.4112 61.9074 C 69.4279 61.9137 69.4445 61.8554 69.4612 61.8619 C 69.4779 61.8684 69.4945 61.8096 69.5112 61.8163 C 69.5279 61.823 69.5445 61.7637 69.5612 61.7706 C 69.5779 61.7775 69.5946 61.7178 69.6112 61.7249 C 69.6279 61.732 69.6446 61.6718 69.6612 61.6791 C 69.6779 61.6863 69.6946 61.6257 69.7112 61.6332 C 69.7279 61.6406 69.7446 61.5795 69.7613 61.5872 C 69.7779 61.5949 69.7946 61.5333 69.8113 61.5411 C 69.8279 61.549 69.8446 61.487 69.8613 61.495 C 69.8779 61.5031 69.8946 61.4406 69.9113 61.4488 C 69.928 61.4571 69.9446 61.3941 69.9613 61.4025 C 69.978 61.411 69.9946 61.3476 70.0113 61.3562 C 70.028 61.3648 70.0446 61.3009 70.0613 61.3097 C 70.078 61.3185 70.0947 61.2542 70.1113 61.2632 C 70.128 61.2722 70.1447 61.2074 70.1613 61.2166 C 70.178 61.2258 70.1947 61.1606 70.2113 61.17 C 70.228 61.1793 70.2447 61.1137 70.2614 61.1232 C 70.278 61.1327 70.2947 61.0667 70.3114 61.0764 C 70.328 61.0861 70.3447 61.0196 70.3614 61.0295 C 70.378 61.0394 70.3947 60.9724 70.4114 60.9825 C 70.4281 60.9926 70.4447 60.9252 70.4614 60.9354 C 70.4781 60.9457 70.4947 60.8779 70.5114 60.8883 C 70.5281 60.8988 70.5447 60.8305 70.5614 60.8411 C 70.5781 60.8517 70.5948 60.783 70.6114 60.7938 C 70.6281 60.8046 70.6448 60.7355 70.6614 60.7464 C 70.6781 60.7574 70.6948 60.6879 70.7114 60.699 C 70.7281 60.7101 70.7448 60.6402 70.7615 60.6515 C 70.7781 60.6628 70.7948 60.5924 70.8115 60.6039 C 70.8281 60.6154 70.8448 60.5445 70.8615 60.5562 C 70.8781 60.5679 70.8948 60.4966 70.9115 60.5085 C 70.9282 60.5203 70.9448 60.4486 70.9615 60.4606 C 70.9782 60.4726 70.9948 60.4005 71.0115 60.4127 C 71.0282 60.4249 71.0448 60.3524 71.0615 60.3647 C 71.0782 60.3771 71.0949 60.3042 71.1115 60.3167 C 71.1282 60.3292 71.1449 60.2559 71.1615 60.2685 C 71.1782 60.2812 71.1949 60.2075 71.2115 60.2203 C 71.2282 60.2331 71.2449 60.159 71.2616 60.172 C 71.2782 60.185 71.2949 60.1105 71.3116 60.1236 C 71.3282 60.1368 71.3449 60.0619 71.3616 60.0752 C 71.3782 60.0885 71.3949 60.0132 71.4116 60.0267 C 71.4283 60.0401 71.4449 59.9644 71.4616 59.9781 C 71.4783 59.9917 71.4949 59.9156 71.5116 59.9294 C 71.5283 59.9431 71.5449 59.8667 71.5616 59.8806 C 71.5783 59.8945 71.595 59.8177 71.6116 59.8318 C 71.6283 59.8459 71.645 59.7686 71.6616 59.7829 C 71.6783 59.7971 71.695 59.7195 71.7117 59.7339 C 71.7283 59.7482 71.745 59.6703 71.7617 59.6848 C 71.7783 59.6993 71.795 59.621 71.8117 59.6357 C 71.8283 59.6503 71.845 59.5716 71.8617 59.5864 C 71.8784 59.6012 71.895 59.5222 71.9117 59.5371 C 71.9284 59.5521 71.945 59.4727 71.9617 59.4878 C 71.9784 59.5029 71.995 59.4231 72.0117 59.4383 C 72.0284 59.4535 72.0451 59.3734 72.0617 59.3888 C 72.0784 59.4041 72.0951 59.3237 72.1117 59.3392 C 72.1284 59.3547 72.1451 59.2738 72.1617 59.2895 C 72.1784 59.3051 72.1951 59.2239 72.2118 59.2397 C 72.2284 59.2555 72.2451 59.174 72.2618 59.1899 C 72.2784 59.2058 72.2951 59.1239 72.3118 59.1399 C 72.3284 59.156 72.3451 59.0738 72.3618 59.0899 C 72.3785 59.1061 72.3951 59.0236 72.4118 59.0399 C 72.4285 59.0562 72.4451 58.9733 72.4618 58.9897 C 72.4785 59.0061 72.4951 58.9229 72.5118 58.9395 C 72.5285 58.956 72.5452 58.8725 72.5618 58.8892 C 72.5785 58.9059 72.5952 58.822 72.6118 58.8388 C 72.6285 58.8556 72.6452 58.7714 72.6618 58.7883 C 72.6785 58.8052 72.6952 58.7208 72.7119 58.7378 C 72.7285 58.7548 72.7452 58.67 72.7619 58.6872 C 72.7785 58.7043 72.7952 58.6192 72.8119 58.6365 C 72.8285 58.6537 72.8452 58.5684 72.8619 58.5857 C 72.8786 58.6031 72.8952 58.5174 72.9119 58.5349 C 72.9286 58.5523 72.9452 58.4664 72.9619 58.4839 C 72.9786 58.5015 72.9952 58.4152 73.0119 58.4329 C 73.0286 58.4506 73.0453 58.3641 73.0619 58.3819 C 73.0786 58.3997 73.0953 58.3128 73.1119 58.3307 C 73.1286 58.3486 73.1453 58.2615 73.1619 58.2795 C 73.1786 58.2975 73.1953 58.2101 73.212 58.2282 C 73.2286 58.2463 73.2453 58.1586 73.262 58.1768 C 73.2786 58.195 73.2953 58.107 73.312 58.1253 C 73.3286 58.1436 73.3453 58.0554 73.362 58.0738 C 73.3787 58.0921 73.3953 58.0036 73.412 58.0221 C 73.4287 58.0406 73.4453 57.9519 73.462 57.9704 C 73.4787 57.989 73.4953 57.9 73.512 57.9187 C 73.5287 57.9373 73.5454 57.848 73.562 57.8668 C 73.5787 57.8855 73.5954 57.796 73.612 57.8149 C 73.6287 57.8337 73.6454 57.7439 73.662 57.7629 C 73.6787 57.7818 73.6954 57.6918 73.7121 57.7108 C 73.7287 57.7298 73.7454 57.6395 73.7621 57.6586 C 73.7787 57.6777 73.7954 57.5872 73.8121 57.6064 C 73.8287 57.6255 73.8454 57.5348 73.8621 57.554 C 73.8788 57.5733 73.8954 57.4823 73.9121 57.5016 C 73.9288 57.521 73.9454 57.4298 73.9621 57.4492 C 73.9788 57.4685 73.9954 57.3772 74.0121 57.3966 C 74.0288 57.4161 74.0455 57.3245 74.0621 57.344 C 74.0788 57.3635 74.0955 57.2717 74.1121 57.2913 C 74.1288 57.3109 74.1455 57.2189 74.1621 57.2385 C 74.1788 57.2581 74.1955 57.1659 74.2122 57.1856 C 74.2288 57.2053 74.2455 57.1129 74.2622 57.1327 C 74.2788 57.1525 74.2955 57.0599 74.3122 57.0797 C 74.3288 57.0995 74.3455 57.0067 74.3622 57.0266 C 74.3789 57.0465 74.3955 56.9535 74.4122 56.9734 C 74.4289 56.9934 74.4455 56.9002 74.4622 56.9202 C 74.4789 56.9402 74.4956 56.8468 74.5122 56.8669 C 74.5289 56.8869 74.5456 56.7934 74.5622 56.8135 C 74.5789 56.8335 74.5956 56.7399 74.6122 56.76 C 74.6289 56.7801 74.6456 56.6863 74.6623 56.7064 C 74.6789 56.7266 74.6956 56.6326 74.7123 56.6528 C 74.7289 56.673 74.7456 56.5788 74.7623 56.5991 C 74.7789 56.6193 74.7956 56.525 74.8123 56.5453 C 74.829 56.5656 74.8456 56.4711 74.8623 56.4914 C 74.879 56.5117 74.8956 56.4171 74.9123 56.4375 C 74.929 56.4578 74.9456 56.3631 74.9623 56.3835 C 74.979 56.4038 74.9957 56.3089 75.0123 56.3294 C 75.029 56.3498 75.0457 56.2547 75.0623 56.2752 C 75.079 56.2956 75.0957 56.2005 75.1123 56.2209 C 75.129 56.2414 75.1457 56.1461 75.1624 56.1666 C 75.179 56.1871 75.1957 56.0917 75.2124 56.1122 C 75.229 56.1327 75.2457 56.0372 75.2624 56.0577 C 75.279 56.0782 75.2957 55.9826 75.3124 56.0031 C 75.3291 56.0237 75.3457 55.9279 75.3624 55.9485 C 75.3791 55.9691 75.3957 55.8732 75.4124 55.8938 C 75.4291 55.9144 75.4457 55.8184 75.4624 55.839 C 75.4791 55.8596 75.4958 55.7635 75.5124 55.7841 C 75.5291 55.8047 75.5458 55.7086 75.5624 55.7292 C 75.5791 55.7498 75.5958 55.6535 75.6124 55.6741 C 75.6291 55.6947 75.6458 55.5984 75.6625 55.619 C 75.6791 55.6396 75.6958 55.5432 75.7125 55.5638 C 75.7291 55.5845 75.7458 55.488 75.7625 55.5086 C 75.7791 55.5292 75.7958 55.4326 75.8125 55.4533 C 75.8292 55.4739 75.8458 55.3772 75.8625 55.3978 C 75.8792 55.4184 75.8958 55.3218 75.9125 55.3423 C 75.9292 55.3629 75.9458 55.2662 75.9625 55.2868 C 75.9792 55.3074 75.9959 55.2106 76.0125 55.2311 C 76.0292 55.2517 76.0459 55.1548 76.0625 55.1754 C 76.0792 55.196 76.0959 55.0991 76.1125 55.1196 C 76.1292 55.1402 76.1459 55.0432 76.1626 55.0637 C 76.1792 55.0843 76.1959 54.9873 76.2126 55.0078 C 76.2292 55.0283 76.2459 54.9313 76.2626 54.9517 C 76.2792 54.9722 76.2959 54.8752 76.3126 54.8956 C 76.3293 54.9161 76.3459 54.819 76.3626 54.8394 C 76.3793 54.8599 76.3959 54.7628 76.4126 54.7832 C 76.4293 54.8036 76.4459 54.7065 76.4626 54.7268 C 76.4793 54.7472 76.496 54.6501 76.5126 54.6704 C 76.5293 54.6908 76.546 54.5936 76.5626 54.6139 C 76.5793 54.6342 76.596 54.5371 76.6126 54.5573 C 76.6293 54.5776 76.646 54.4805 76.6627 54.5007 C 76.6793 54.5209 76.696 54.4238 76.7127 54.444 C 76.7293 54.4642 76.746 54.367 76.7627 54.3872 C 76.7793 54.4073 76.796 54.3102 76.8127 54.3303 C 76.8294 54.3504 76.846 54.2532 76.8627 54.2733 C 76.8794 54.2934 76.896 54.1963 76.9127 54.2163 C 76.9294 54.2363 76.946 54.1392 76.9627 54.1592 C 76.9794 54.1791 76.9961 54.082 77.0127 54.102 C 77.0294 54.1219 77.0461 54.0248 77.0627 54.0447 C 77.0794 54.0645 77.0961 53.9675 77.1128 53.9873 C 77.1294 54.0071 77.1461 53.9102 77.1628 53.9299 C 77.1794 53.9497 77.1961 53.8527 77.2128 53.8724 C 77.2294 53.8921 77.2461 53.7952 77.2628 53.8148 C 77.2795 53.8344 77.2961 53.7376 77.3128 53.7572 C 77.3295 53.7767 77.3461 53.6799 77.3628 53.6994 C 77.3795 53.7189 77.3961 53.6222 77.4128 53.6416 C 77.4295 53.661 77.4462 53.5644 77.4628 53.5837 C 77.4795 53.6031 77.4962 53.5065 77.5128 53.5258 C 77.5295 53.545 77.5462 53.4485 77.5628 53.4677 C 77.5795 53.4869 77.5962 53.3905 77.6129 53.4096 C 77.6295 53.4287 77.6462 53.3323 77.6629 53.3514 C 77.6795 53.3704 77.6962 53.2741 77.7129 53.2931 C 77.7295 53.3121 77.7462 53.2159 77.7629 53.2348 C 77.7796 53.2537 77.7962 53.1575 77.8129 53.1763 C 77.8296 53.1951 77.8462 53.0991 77.8629 53.1178 C 77.8796 53.1365 77.8962 53.0406 77.9129 53.0592 C 77.9296 53.0779 77.9463 52.982 77.9629 53.0006 C 77.9796 53.0191 77.9963 52.9234 78.0129 52.9418 C 78.0296 52.9603 78.0463 52.8646 78.0629 52.883 C 78.0796 52.9014 78.0963 52.8058 78.113 52.8241 C 78.1296 52.8424 78.1463 52.747 78.163 52.7651 C 78.1796 52.7833 78.1963 52.688 78.213 52.7061 C 78.2296 52.7242 78.2463 52.629 78.263 52.647 C 78.2797 52.6649 78.2963 52.5699 78.313 52.5878 C 78.3297 52.6056 78.3463 52.5107 78.363 52.5285 C 78.3797 52.5462 78.3963 52.4515 78.413 52.4691 C 78.4297 52.4868 78.4464 52.3921 78.463 52.4097 C 78.4797 52.4272 78.4964 52.3327 78.513 52.3502 C 78.5297 52.3676 78.5464 52.2732 78.563 52.2906 C 78.5797 52.3079 78.5964 52.2137 78.6131 52.2309 C 78.6297 52.2481 78.6464 52.154 78.6631 52.1711 C 78.6797 52.1883 78.6964 52.0943 78.7131 52.1113 C 78.7297 52.1283 78.7464 52.0345 78.7631 52.0514 C 78.7798 52.0683 78.7964 51.9747 78.8131 51.9914 C 78.8298 52.0082 78.8464 51.9148 78.8631 51.9314 C 78.8798 51.948 78.8964 51.8547 78.9131 51.8712 C 78.9298 51.8878 78.9465 51.7947 78.9631 51.811 C 78.9798 51.8274 78.9965 51.7345 79.0131 51.7507 C 79.0298 51.767 79.0465 51.6742 79.0631 51.6904 C 79.0798 51.7065 79.0965 51.6139 79.1132 51.6299 C 79.1298 51.6459 79.1465 51.5535 79.1632 51.5694 C 79.1798 51.5853 79.1965 51.4931 79.2132 51.5088 C 79.2298 51.5246 79.2465 51.4325 79.2632 51.4481 C 79.2799 51.4637 79.2965 51.3719 79.3132 51.3874 C 79.3299 51.4029 79.3465 51.3112 79.3632 51.3266 C 79.3799 51.3419 79.3965 51.2505 79.4132 51.2656 C 79.4299 51.2808 79.4466 51.1896 79.4632 51.2047 C 79.4799 51.2197 79.4966 51.1287 79.5132 51.1436 C 79.5299 51.1585 79.5466 51.0677 79.5632 51.0825 C 79.5799 51.0972 79.5966 51.0066 79.6133 51.0212 C 79.6299 51.0359 79.6466 50.9455 79.6633 50.9599 C 79.6799 50.9744 79.6966 50.8842 79.7133 50.8986 C 79.73 50.9129 79.7466 50.8229 79.7633 50.8371 C 79.78 50.8513 79.7966 50.7616 79.8133 50.7756 C 79.83 50.7896 79.8466 50.7001 79.8633 50.714 C 79.88 50.7279 79.8967 50.6386 79.9133 50.6523 C 79.93 50.666 79.9467 50.577 79.9633 50.5905 C 79.98 50.6041 79.9967 50.5153 80.0133 50.5287 C 80.03 50.5421 80.0467 50.4535 80.0634 50.4668 C 80.08 50.4801 80.0967 50.3917 80.1134 50.4048 C 80.13 50.4179 80.1467 50.3298 80.1634 50.3427 C 80.18 50.3557 80.1967 50.2678 80.2134 50.2806 C 80.2301 50.2934 80.2467 50.2058 80.2634 50.2184 C 80.2801 50.231 80.2967 50.1436 80.3134 50.1561 C 80.3301 50.1685 80.3467 50.0814 80.3634 50.0937 C 80.3801 50.106 80.3968 50.0191 80.4134 50.0312 C 80.4301 50.0433 80.4468 49.9567 80.4634 49.9687 C 80.4801 49.9806 80.4968 49.8943 80.5134 49.9061 C 80.5301 49.9179 80.5468 49.8318 80.5635 49.8434 C 80.5801 49.855 80.5968 49.7692 80.6135 49.7806 C 80.6301 49.7921 80.6468 49.7065 80.6635 49.7178 C 80.6801 49.7291 80.6968 49.6438 80.7135 49.6549 C 80.7302 49.666 80.7468 49.581 80.7635 49.5919 C 80.7802 49.6028 80.7968 49.5181 80.8135 49.5288 C 80.8302 49.5395 80.8468 49.4551 80.8635 49.4656 C 80.8802 49.4762 80.8969 49.392 80.9135 49.4024 C 80.9302 49.4128 80.9469 49.3289 80.9635 49.3391 C 80.9802 49.3493 80.9969 49.2657 81.0135 49.2757 C 81.0302 49.2858 81.0469 49.2024 81.0636 49.2123 C 81.0802 49.2221 81.0969 49.1391 81.1136 49.1487 C 81.1302 49.1584 81.1469 49.0756 81.1636 49.0851 C 81.1802 49.0946 81.1969 49.0121 81.2136 49.0214 C 81.2303 49.0307 81.2469 48.9485 81.2636 48.9576 C 81.2803 48.9668 81.2969 48.8849 81.3136 48.8938 C 81.3303 48.9027 81.3469 48.8211 81.3636 48.8299 C 81.3803 48.8386 81.397 48.7573 81.4136 48.7659 C 81.4303 48.7744 81.447 48.6934 81.4636 48.7018 C 81.4803 48.7101 81.497 48.6294 81.5136 48.6376 C 81.5303 48.6458 81.547 48.5654 81.5637 48.5734 C 81.5803 48.5814 81.597 48.5013 81.6137 48.5091 C 81.6303 48.5169 81.647 48.4371 81.6637 48.4447 C 81.6803 48.4523 81.697 48.3728 81.7137 48.3802 C 81.7304 48.3876 81.747 48.3084 81.7637 48.3157 C 81.7804 48.3229 81.797 48.244 81.8137 48.251 C 81.8304 48.2581 81.847 48.1795 81.8637 48.1863 C 81.8804 48.1932 81.8971 48.1149 81.9137 48.1216 C 81.9304 48.1282 81.9471 48.0503 81.9637 48.0567 C 81.9804 48.0632 81.9971 47.9855 82.0137 47.9918 C 82.0304 47.998 82.0471 47.9207 82.0638 47.9268 C 82.0804 47.9328 82.0971 47.8558 82.1138 47.8617 C 82.1304 47.8675 82.1471 47.7909 82.1638 47.7965 C 82.1804 47.8022 82.1971 47.7258 82.2138 47.7313 C 82.2305 47.7367 82.2471 47.6607 82.2638 47.666 C 82.2805 47.6712 82.2971 47.5955 82.3138 47.6006 C 82.3305 47.6056 82.3472 47.5302 82.3638 47.5351 C 82.3805 47.5399 82.3972 47.4649 82.4138 47.4695 C 82.4305 47.4742 82.4472 47.3995 82.4638 47.4039 C 82.4805 47.4084 82.4972 47.3339 82.5139 47.3382 C 82.5305 47.3425 82.5472 47.2684 82.5639 47.2724 C 82.5805 47.2765 82.5972 47.2027 82.6139 47.2066 C 82.6305 47.2104 82.6472 47.137 82.6639 47.1406 C 82.6806 47.1443 82.6972 47.0712 82.7139 47.0746 C 82.7306 47.078 82.7472 47.0053 82.7639 47.0085 C 82.7806 47.0117 82.7972 46.9393 82.8139 46.9423 C 82.8306 46.9454 82.8473 46.8733 82.8639 46.8761 C 82.8806 46.8789 82.8973 46.8071 82.9139 46.8098 C 82.9306 46.8124 82.9473 46.7409 82.9639 46.7434 C 82.9806 46.7458 82.9973 46.6747 83.014 46.6769 C 83.0306 46.6791 83.0473 46.6083 83.064 46.6103 C 83.0806 46.6123 83.0973 46.5419 83.114 46.5437 C 83.1306 46.5455 83.1473 46.4754 83.164 46.477 C 83.1807 46.4786 83.1973 46.4088 83.214 46.4102 C 83.2307 46.4116 83.2473 46.3421 83.264 46.3433 C 83.2807 46.3445 83.2973 46.2754 83.314 46.2764 C 83.3307 46.2774 83.3474 46.2086 83.364 46.2094 C 83.3807 46.2101 83.3974 46.1417 83.414 46.1423 C 83.4307 46.1428 83.4474 46.0747 83.464 46.0751 C 83.4807 46.0754 83.4974 46.0077 83.5141 46.0078 C 83.5307 46.008 83.5474 45.9405 83.5641 45.9405 C 83.5807 45.9404 83.5974 45.8733 83.6141 45.8731 C 83.6307 45.8728 83.6474 45.8061 83.6641 45.8056 C 83.6808 45.8051 83.6974 45.7387 83.7141 45.738 C 83.7308 45.7374 83.7474 45.6713 83.7641 45.6704 C 83.7808 45.6695 83.7974 45.6038 83.8141 45.6027 C 83.8308 45.6016 83.8475 45.5362 83.8641 45.5349 C 83.8808 45.5336 83.8975 45.4685 83.9141 45.467 C 83.9308 45.4655 83.9475 45.4008 83.9641 45.3991 C 83.9808 45.3974 83.9975 45.3329 84.0142 45.331 C 84.0308 45.3291 84.0475 45.265 84.0642 45.2629 C 84.0808 45.2608 84.0975 45.1971 84.1142 45.1947 C 84.1308 45.1924 84.1475 45.129 84.1642 45.1265 C 84.1809 45.124 84.1975 45.0609 84.2142 45.0582 C 84.2309 45.0554 84.2475 44.9927 84.2642 44.9897 C 84.2809 44.9868 84.2975 44.9244 84.3142 44.9212 C 84.3309 44.9181 84.3476 44.856 84.3642 44.8527 C 84.3809 44.8493 84.3976 44.7876 84.4142 44.784 C 84.4309 44.7805 84.4476 44.719 84.4642 44.7153 C 84.4809 44.7116 84.4976 44.6504 84.5143 44.6465 C 84.5309 44.6426 84.5476 44.5818 84.5643 44.5776 C 84.5809 44.5735 84.5976 44.513 84.6143 44.5087 C 84.6309 44.5043 84.6476 44.4442 84.6643 44.4396 C 84.681 44.4351 84.6976 44.3753 84.7143 44.3705 C 84.731 44.3658 84.7476 44.3063 84.7643 44.3013 C 84.781 44.2964 84.7976 44.2372 84.8143 44.2321 C 84.831 44.2269 84.8477 44.1681 84.8643 44.1627 C 84.881 44.1574 84.8977 44.0989 84.9143 44.0933 C 84.931 44.0878 84.9477 44.0296 84.9643 44.0238 C 84.981 44.0181 84.9977 43.9602 85.0144 43.9542 C 85.031 43.9483 85.0477 43.8907 85.0644 43.8846 C 85.081 43.8784 85.0977 43.8212 85.1144 43.8149 C 85.1311 43.8085 85.1477 43.7516 85.1644 43.745 C 85.1811 43.7385 85.1977 43.6819 85.2144 43.6752 C 85.2311 43.6684 85.2477 43.6121 85.2644 43.6052 C 85.2811 43.5983 85.2978 43.5423 85.3144 43.5352 C 85.3311 43.528 85.3478 43.4724 85.3644 43.465 C 85.3811 43.4577 85.3978 43.4024 85.4144 43.3948 C 85.4311 43.3873 85.4478 43.3323 85.4645 43.3246 C 85.4811 43.3169 85.4978 43.2621 85.5145 43.2542 C 85.5311 43.2463 85.5478 43.1919 85.5645 43.1838 C 85.5811 43.1757 85.5978 43.1216 85.6145 43.1133 C 85.6312 43.105 85.6478 43.0512 85.6645 43.0427 C 85.6812 43.0343 85.6978 42.9807 85.7145 42.9721 C 85.7312 42.9634 85.7478 42.9102 85.7645 42.9013 C 85.7812 42.8925 85.7979 42.8395 85.8145 42.8305 C 85.8312 42.8215 85.8479 42.7688 85.8645 42.7596 C 85.8812 42.7504 85.8979 42.698 85.9145 42.6886 C 85.9312 42.6793 85.9479 42.6272 85.9646 42.6176 C 85.9812 42.608 85.9979 42.5562 86.0146 42.5465 C 86.0312 42.5367 86.0479 42.4852 86.0646 42.4753 C 86.0812 42.4653 86.0979 42.4141 86.1146 42.404 C 86.1313 42.3939 86.1479 42.3429 86.1646 42.3326 C 86.1813 42.3224 86.1979 42.2717 86.2146 42.2612 C 86.2313 42.2507 86.2479 42.2004 86.2646 42.1897 C 86.2813 42.1791 86.298 42.1289 86.3146 42.1181 C 86.3313 42.1073 86.348 42.0575 86.3646 42.0465 C 86.3813 42.0355 86.398 41.9859 86.4146 41.9747 C 86.4313 41.9635 86.448 41.9142 86.4647 41.9029 C 86.4813 41.8915 86.498 41.8425 86.5147 41.831 C 86.5313 41.8195 86.548 41.7707 86.5647 41.759 C 86.5813 41.7473 86.598 41.6988 86.6147 41.687 C 86.6314 41.6751 86.648 41.6269 86.6647 41.6148 C 86.6814 41.6028 86.698 41.5548 86.7147 41.5426 C 86.7314 41.5304 86.748 41.4827 86.7647 41.4703 C 86.7814 41.458 86.7981 41.4105 86.8147 41.398 C 86.8314 41.3855 86.8481 41.3382 86.8647 41.3255 C 86.8814 41.3129 86.8981 41.2659 86.9147 41.253 C 86.9314 41.2402 86.9481 41.1935 86.9648 41.1804 C 86.9814 41.1674 86.9981 41.1209 87.0148 41.1078 C 87.0314 41.0946 87.0481 41.0483 87.0648 41.035 C 87.0814 41.0217 87.0981 40.9757 87.1148 40.9622 C 87.1315 40.9487 87.1481 40.9029 87.1648 40.8893 C 87.1815 40.8757 87.1981 40.8301 87.2148 40.8163 C 87.2315 40.8025 87.2481 40.7572 87.2648 40.7433 C 87.2815 40.7293 87.2982 40.6842 87.3148 40.6701 C 87.3315 40.656 87.3482 40.6112 87.3648 40.5969 C 87.3815 40.5827 87.3982 40.538 87.4148 40.5236 C 87.4315 40.5092 87.4482 40.4648 87.4649 40.4503 C 87.4815 40.4357 87.4982 40.3915 87.5149 40.3768 C 87.5315 40.3621 87.5482 40.3181 87.5649 40.3033 C 87.5815 40.2885 87.5982 40.2447 87.6149 40.2297 C 87.6316 40.2147 87.6482 40.1711 87.6649 40.156 C 87.6816 40.1409 87.6982 40.0975 87.7149 40.0823 C 87.7316 40.067 87.7483 40.0238 87.7649 40.0084 C 87.7816 39.993 87.7983 39.95 87.8149 39.9345 C 87.8316 39.919 87.8483 39.8762 87.8649 39.8605 C 87.8816 39.8449 87.8983 39.8023 87.915 39.7865 C 87.9316 39.7707 87.9483 39.7283 87.965 39.7123 C 87.9816 39.6964 87.9983 39.6542 88.015 39.6381 C 88.0316 39.622 88.0483 39.58 88.065 39.5638 C 88.0817 39.5476 88.0983 39.5058 88.115 39.4894 C 88.1317 39.4731 88.1483 39.4314 88.165 39.415 C 88.1817 39.3985 88.1983 39.357 88.215 39.3405 C 88.2317 39.3239 88.2484 39.2825 88.265 39.2659 C 88.2817 39.2492 88.2984 39.208 88.315 39.1912 C 88.3317 39.1744 88.3484 39.1333 88.365 39.1164 C 88.3817 39.0995 88.3984 39.0586 88.4151 39.0416 C 88.4317 39.0245 88.4484 38.9838 88.4651 38.9667 C 88.4817 38.9495 88.4984 38.9089 88.5151 38.8917 C 88.5317 38.8744 88.5484 38.834 88.5651 38.8166 C 88.5818 38.7992 88.5984 38.7589 88.6151 38.7415 C 88.6318 38.724 88.6484 38.6838 88.6651 38.6662 C 88.6818 38.6486 88.6984 38.6086 88.7151 38.5909 C 88.7318 38.5732 88.7485 38.5334 88.7651 38.5155 C 88.7818 38.4977 88.7985 38.458 88.8151 38.4401 C 88.8318 38.4222 88.8485 38.3826 88.8651 38.3646 C 88.8818 38.3465 88.8985 38.3071 88.9152 38.2889 C 88.9318 38.2708 88.9485 38.2315 88.9652 38.2133 C 88.9818 38.195 88.9985 38.1558 89.0152 38.1375 C 89.0318 38.1192 89.0485 38.0801 89.0652 38.0616 C 89.0819 38.0432 89.0985 38.0042 89.1152 37.9857 C 89.1319 37.9672 89.1485 37.9283 89.1652 37.9097 C 89.1819 37.8911 89.1985 37.8523 89.2152 37.8337 C 89.2319 37.815 89.2486 37.7763 89.2652 37.7575 C 89.2819 37.7387 89.2986 37.7001 89.3152 37.6813 C 89.3319 37.6624 89.3486 37.6239 89.3652 37.605 C 89.3819 37.586 89.3986 37.5476 89.4153 37.5286 C 89.4319 37.5096 89.4486 37.4712 89.4653 37.4521 C 89.4819 37.433 89.4986 37.3947 89.5153 37.3756 C 89.5319 37.3564 89.5486 37.3182 89.5653 37.299 C 89.582 37.2797 89.5986 37.2416 89.6153 37.2223 C 89.632 37.203 89.6486 37.1649 89.6653 37.1455 C 89.682 37.1261 89.6986 37.0881 89.7153 37.0686 C 89.732 37.0492 89.7487 37.0112 89.7653 36.9917 C 89.782 36.9722 89.7987 36.9343 89.8153 36.9147 C 89.832 36.8951 89.8487 36.8573 89.8653 36.8376 C 89.882 36.818 89.8987 36.7802 89.9154 36.7605 C 89.932 36.7408 89.9487 36.703 89.9654 36.6832 C 89.982 36.6635 89.9987 36.6258 90.0154 36.6059 C 90.032 36.5861 90.0487 36.5484 90.0654 36.5285 C 90.0821 36.5086 90.0987 36.471 90.1154 36.4511 C 90.1321 36.4311 90.1487 36.3935 90.1654 36.3735 C 90.1821 36.3535 90.1987 36.3159 90.2154 36.2959 C 90.2321 36.2759 90.2488 36.2383 90.2654 36.2182 C 90.2821 36.1981 90.2988 36.1605 90.3154 36.1404 C 90.3321 36.1203 90.3488 36.0827 90.3655 36.0626 C 90.3821 36.0424 90.3988 36.0048 90.4155 35.9846 C 90.4321 35.9644 90.4488 35.9269 90.4655 35.9066 C 90.4821 35.8864 90.4988 35.8488 90.5155 35.8285 C 90.5322 35.8082 90.5488 35.7707 90.5655 35.7504 C 90.5822 35.73 90.5988 35.6925 90.6155 35.6721 C 90.6322 35.6518 90.6488 35.6142 90.6655 35.5938 C 90.6822 35.5734 90.6989 35.5358 90.7155 35.5154 C 90.7322 35.495 90.7489 35.4574 90.7655 35.4369 C 90.7822 35.4165 90.7989 35.3789 90.8155 35.3584 C 90.8322 35.3379 90.8489 35.3003 90.8656 35.2798 C 90.8822 35.2593 90.8989 35.2216 90.9156 35.201 C 90.9322 35.1805 90.9489 35.1428 90.9656 35.1223 C 90.9822 35.1017 90.9989 35.064 91.0156 35.0434 C 91.0323 35.0228 91.0489 34.985 91.0656 34.9645 C 91.0823 34.9439 91.0989 34.906 91.1156 34.8854 C 91.1323 34.8649 91.1489 34.8269 91.1656 34.8064 C 91.1823 34.7858 91.199 34.7478 91.2156 34.7272 C 91.2323 34.7066 91.249 34.6685 91.2656 34.6479 C 91.2823 34.6273 91.299 34.5892 91.3156 34.5686 C 91.3323 34.548 91.349 34.5098 91.3657 34.4892 C 91.3823 34.4686 91.399 34.4303 91.4157 34.4097 C 91.4323 34.3891 91.449 34.3508 91.4657 34.3302 C 91.4823 34.3096 91.499 34.2711 91.5157 34.2505 C 91.5324 34.2299 91.549 34.1914 91.5657 34.1708 C 91.5824 34.1502 91.599 34.1116 91.6157 34.091 C 91.6324 34.0704 91.649 34.0318 91.6657 34.0112 C 91.6824 33.9906 91.6991 33.9518 91.7157 33.9312 C 91.7324 33.9106 91.7491 33.8718 91.7657 33.8512 C 91.7824 33.8306 91.7991 33.7916 91.8157 33.7711 C 91.8324 33.7506 91.8491 33.7114 91.8658 33.6909 C 91.8824 33.6704 91.8991 33.6312 91.9158 33.6107 C 91.9324 33.5902 91.9491 33.5508 91.9658 33.5303 C 91.9824 33.5099 91.9991 33.4704 92.0158 33.4499 C 92.0325 33.4295 92.0491 33.3899 92.0658 33.3694 C 92.0825 33.349 92.0991 33.3093 92.1158 33.2889 C 92.1325 33.2685 92.1491 33.2286 92.1658 33.2082 C 92.1825 33.1879 92.1992 33.1479 92.2158 33.1275 C 92.2325 33.1072 92.2492 33.067 92.2658 33.0467 C 92.2825 33.0264 92.2992 32.9861 92.3158 32.9658 C 92.3325 32.9456 92.3492 32.9051 92.3659 32.8849 C 92.3825 32.8647 92.3992 32.8241 92.4159 32.8039 C 92.4325 32.7837 92.4492 32.7429 92.4659 32.7228 C 92.4825 32.7026 92.4992 32.6617 92.5159 32.6416 C 92.5326 32.6215 92.5492 32.5804 92.5659 32.5603 C 92.5826 32.5403 92.5992 32.499 92.6159 32.479 C 92.6326 32.459 92.6492 32.4175 92.6659 32.3976 C 92.6826 32.3776 92.6993 32.336 92.7159 32.3161 C 92.7326 32.2962 92.7493 32.2544 92.7659 32.2345 C 92.7826 32.2147 92.7993 32.1727 92.8159 32.1529 C 92.8326 32.1331 92.8493 32.0909 92.866 32.0711 C 92.8826 32.0514 92.8993 32.009 92.916 31.9893 C 92.9326 31.9697 92.9493 31.9271 92.966 31.9075 C 92.9827 31.8878 92.9993 31.845 93.016 31.8255 C 93.0327 31.806 93.0493 31.7629 93.066 31.7435 C 93.0827 31.724 93.0993 31.6808 93.116 31.6614 C 93.1327 31.6419 93.1494 31.5985 93.166 31.5792 C 93.1827 31.5598 93.1994 31.5162 93.216 31.4969 C 93.2327 31.4776 93.2494 31.4337 93.266 31.4146 C 93.2827 31.3954 93.2994 31.3513 93.3161 31.3321 C 93.3327 31.313 93.3494 31.2687 93.3661 31.2496 C 93.3827 31.2306 93.3994 31.186 93.4161 31.1671 C 93.4327 31.1481 93.4494 31.1033 93.4661 31.0844 C 93.4828 31.0655 93.4994 31.0205 93.5161 31.0017 C 93.5328 30.9829 93.5494 30.9376 93.5661 30.9189 C 93.5828 30.9002 93.5994 30.8546 93.6161 30.836 C 93.6328 30.8174 93.6495 30.7716 93.6661 30.753 C 93.6828 30.7345 93.6995 30.6884 93.7161 30.67 C 93.7328 30.6515 93.7495 30.6052 93.7661 30.5869 C 93.7828 30.5685 93.7995 30.5219 93.8162 30.5037 C 93.8328 30.4854 93.8495 30.4386 93.8662 30.4204 C 93.8828 30.4022 93.8995 30.3551 93.9162 30.337 C 93.9328 30.319 93.9495 30.2716 93.9662 30.2536 C 93.9829 30.2357 93.9995 30.188 94.0162 30.1701 C 94.0329 30.1523 94.0495 30.1043 94.0662 30.0865 C 94.0829 30.0688 94.0995 30.0205 94.1162 30.0029 C 94.1329 29.9852 94.1496 29.9367 94.1662 29.9191 C 94.1829 29.9016 94.1996 29.8528 94.2162 29.8353 C 94.2329 29.8179 94.2496 29.7688 94.2662 29.7514 C 94.2829 29.7341 94.2996 29.6847 94.3163 29.6675 C 94.3329 29.6503 94.3496 29.6005 94.3663 29.5834 C 94.3829 29.5663 94.3996 29.5163 94.4163 29.4993 C 94.4329 29.4823 94.4496 29.432 94.4663 29.4151 C 94.483 29.3982 94.4996 29.3476 94.5163 29.3308 C 94.533 29.3141 94.5496 29.2631 94.5663 29.2465 C 94.583 29.2299 94.5996 29.1785 94.6163 29.162 C 94.633 29.1455 94.6497 29.0939 94.6663 29.0775 C 94.683 29.0612 94.6997 29.0092 94.7163 28.9929 C 94.733 28.9767 94.7497 28.9244 94.7663 28.9083 C 94.783 28.8922 94.7997 28.8395 94.8164 28.8235 C 94.833 28.8075 94.8497 28.7546 94.8664 28.7387 C 94.883 28.7229 94.8997 28.6695 94.9164 28.6538 C 94.933 28.6381 94.9497 28.5844 94.9664 28.5688 C 94.9831 28.5533 94.9997 28.4992 95.0164 28.4838 C 95.0331 28.4683 95.0497 28.414 95.0664 28.3987 C 95.0831 28.3833 95.0997 28.3286 95.1164 28.3134 C 95.1331 28.2983 95.1498 28.2432 95.1664 28.2282 C 95.1831 28.2131 95.1998 28.1577 95.2164 28.1428 C 95.2331 28.1279 95.2498 28.0721 95.2664 28.0574 C 95.2831 28.0426 95.2998 27.9864 95.3165 27.9718 C 95.3331 27.9572 95.3498 27.9007 95.3665 27.8863 C 95.3831 27.8718 95.3998 27.8149 95.4165 27.8006 C 95.4331 27.7863 95.4498 27.729 95.4665 27.7148 C 95.4832 27.7007 95.4998 27.643 95.5165 27.629 C 95.5332 27.615 95.5498 27.557 95.5665 27.5431 C 95.5832 27.5293 95.5998 27.4708 95.6165 27.4571 C 95.6332 27.4434 95.6499 27.3846 95.6665 27.3711 C 95.6832 27.3575 95.6999 27.2983 95.7165 27.2849 C 95.7332 27.2715 95.7499 27.2119 95.7666 27.1987 C 95.7832 27.1855 95.7999 27.1255 95.8166 27.1124 C 95.8332 27.0994 95.8499 27.039 95.8666 27.0261 C 95.8832 27.0131 95.8999 26.9524 95.9166 26.9396 C 95.9333 26.9269 95.9499 26.8657 95.9666 26.8531 C 95.9833 26.8405 95.9999 26.7789 96.0166 26.7665 C 96.0333 26.7541 96.0499 26.6921 96.0666 26.6798 C 96.0833 26.6676 96.1 26.6052 96.1166 26.5931 C 96.1333 26.581 96.15 26.5182 96.1666 26.5062 C 96.1833 26.4943 96.2 26.4311 96.2166 26.4193 C 96.2333 26.4076 96.25 26.3439 96.2667 26.3323 C 96.2833 26.3208 96.3 26.2567 96.3167 26.2453 C 96.3333 26.2339 96.35 26.1694 96.3667 26.1581 C 96.3833 26.1469 96.4 26.082 96.4167 26.0709 C 96.4334 26.0598 96.45 25.9945 96.4667 25.9836 C 96.4834 25.9727 96.5 25.907 96.5167 25.8962 C 96.5334 25.8855 96.55 25.8193 96.5667 25.8088 C 96.5834 25.7983 96.6001 25.7316 96.6167 25.7213 C 96.6334 25.7109 96.6501 25.6438 96.6667 25.6337 C 96.6834 25.6235 96.7001 25.556 96.7167 25.546 C 96.7334 25.536 96.7501 25.468 96.7668 25.4582 C 96.7834 25.4484 96.8001 25.38 96.8168 25.3704 C 96.8334 25.3607 96.8501 25.2919 96.8668 25.2825 C 96.8834 25.273 96.9001 25.2037 96.9168 25.1945 C 96.9335 25.1852 96.9501 25.1155 96.9668 25.1064 C 96.9835 25.0973 97.0001 25.0272 97.0168 25.0183 C 97.0335 25.0093 97.0501 24.9387 97.0668 24.93 C 97.0835 24.9213 97.1002 24.8503 97.1168 24.8417 C 97.1335 24.8332 97.1502 24.7617 97.1668 24.7533 C 97.1835 24.745 97.2002 24.673 97.2168 24.6649 C 97.2335 24.6567 97.2502 24.5843 97.2669 24.5764 C 97.2835 24.5684 97.3002 24.4955 97.3169 24.4877 C 97.3335 24.48 97.3502 24.4066 97.3669 24.3991 C 97.3835 24.3915 97.4002 24.3177 97.4169 24.3103 C 97.4336 24.3029 97.4502 24.2286 97.4669 24.2214 C 97.4836 24.2143 97.5002 24.1395 97.5169 24.1325 C 97.5336 24.1255 97.5502 24.0503 97.5669 24.0435 C 97.5836 24.0367 97.6003 23.9611 97.6169 23.9545 C 97.6336 23.9478 97.6503 23.8717 97.6669 23.8653 C 97.6836 23.8589 97.7003 23.7823 97.7169 23.7761 C 97.7336 23.7698 97.7503 23.6928 97.767 23.6868 C 97.7836 23.6807 97.8003 23.6032 97.817 23.5974 C 97.8336 23.5915 97.8503 23.5135 97.867 23.5079 C 97.8836 23.5023 97.9003 23.4238 97.917 23.4184 C 97.9337 23.4129 97.9503 23.334 97.967 23.3288 C 97.9837 23.3235 98.0003 23.2441 98.017 23.2391 C 98.0337 23.234 98.0503 23.1541 98.067 23.1493 C 98.0837 23.1445 98.1004 23.0641 98.117 23.0594 C 98.1337 23.0548 98.1504 22.9739 98.167 22.9695 C 98.1837 22.9651 98.2004 22.8837 98.217 22.8795 C 98.2337 22.8753 98.2504 22.7934 98.2671 22.7894 C 98.2837 22.7854 98.3004 22.7031 98.3171 22.6993 C 98.3337 22.6954 98.3504 22.6126 98.3671 22.609 C 98.3838 22.6054 98.4004 22.5221 98.4171 22.5187 C 98.4338 22.5153 98.4504 22.4315 98.4671 22.4283 C 98.4838 22.4251 98.5004 22.3409 98.5171 22.3379 C 98.5338 22.3348 98.5505 22.2501 98.5671 22.2473 C 98.5838 22.2445 98.6005 22.1593 98.6171 22.1567 C 98.6338 22.1541 98.6505 22.0684 98.6671 22.066 C 98.6838 22.0636 98.7005 21.9774 98.7172 21.9752 C 98.7338 21.973 98.7505 21.8863 98.7672 21.8843 C 98.7838 21.8824 98.8005 21.7952 98.8172 21.7934 C 98.8338 21.7916 98.8505 21.704 98.8672 21.7024 C 98.8839 21.7008 98.9005 21.6127 98.9172 21.6113 C 98.9339 21.61 98.9505 21.5213 98.9672 21.5202 C 98.9839 21.519 99.0005 21.4299 99.0172 21.4289 C 99.0339 21.428 99.0506 21.3383 99.0672 21.3376 C 99.0839 21.3368 99.1006 21.2467 99.1172 21.2462 C 99.1339 21.2457 99.1506 21.1551 99.1672 21.1547 C 99.1839 21.1544 99.2006 21.0633 99.2173 21.0632 C 99.2339 21.063 99.2506 20.9715 99.2673 20.9715 C 99.2839 20.9716 99.3006 20.8795 99.3173 20.8798 C 99.3339 20.8801 99.3506 20.7876 99.3673 20.788 C 99.384 20.7885 99.4006 20.6955 99.4173 20.6962 C 99.434 20.6969 99.4506 20.6033 99.4673 20.6042 C 99.484 20.6052 99.5006 20.5111 99.5173 20.5122 C 99.534 20.5133 99.5507 20.4188 99.5673 20.4201 C 99.584 20.4215 99.6007 20.3264 99.6173 20.328 C 99.634 20.3295 99.6507 20.234 99.6673 20.2357 C 99.684 20.2374 99.7007 20.1415 99.7174 20.1434 C 99.734 20.1453 99.7507 20.0488 99.7674 20.051 C 99.784 20.0531 99.8007 19.9562 99.8174 19.9585 C 99.834 19.9609 99.8507 19.8634 99.8674 19.8659 C 99.8841 19.8685 99.9007 19.7706 99.9174 19.7733 C 99.9341 19.7761 99.9507 19.6776 99.9674 19.6806 C 99.9841 19.6836 100.001 19.5846 100.017 19.5878 C 100.034 19.591 100.051 19.4916 100.067 19.4949 C 100.084 19.4983 100.101 19.3984 100.117 19.402 C 100.134 19.4056 100.151 19.3052 100.167 19.309 C 100.184 19.3127 100.201 19.2119 100.217 19.2159 C 100.234 19.2198 100.251 19.1185 100.267 19.1227 C 100.284 19.1269 100.301 19.0251 100.317 19.0294 C 100.334 19.0338 100.351 18.9315 100.367 18.9361 C 100.384 18.9407 100.401 18.8379 100.417 18.8427 C 100.434 18.8475 100.451 18.7442 100.468 18.7492 C 100.484 18.7542 100.501 18.6505 100.518 18.6557 C 100.534 18.6608 100.551 18.5566 100.568 18.562 C 100.584 18.5674 100.601 18.4627 100.618 18.4683 C 100.634 18.4739 100.651 18.3687 100.668 18.3745 C 100.684 18.3803 100.701 18.2746 100.718 18.2806 C 100.734 18.2866 100.751 18.1805 100.768 18.1867 C 100.784 18.1928 100.801 18.0863 100.818 18.0926 C 100.834 18.099 100.851 17.992 100.868 17.9985 C 100.884 18.0051 100.901 17.8976 100.918 17.9044 C 100.934 17.9111 100.951 17.8031 100.968 17.8101 C 100.984 17.817 101.001 17.7086 101.018 17.7158 C 101.034 17.7229 101.051 17.614 101.068 17.6213 C 101.084 17.6287 101.101 17.5193 101.118 17.5268 C 101.134 17.5344 101.151 17.4245 101.168 17.4323 C 101.184 17.44 101.201 17.3297 101.218 17.3376 C 101.234 17.3455 101.251 17.2348 101.268 17.2429 C 101.284 17.251 101.301 17.1398 101.318 17.1481 C 101.334 17.1564 101.351 17.0447 101.368 17.0532 C 101.384 17.0617 101.401 16.9496 101.418 16.9583 C 101.434 16.9669 101.451 16.8544 101.468 16.8632 C 101.484 16.8721 101.501 16.7591 101.518 16.7681 C 101.534 16.7772 101.551 16.6637 101.568 16.6729 C 101.584 16.6822 101.601 16.5682 101.618 16.5777 C 101.634 16.5871 101.651 16.4727 101.668 16.4823 C 101.684 16.4919 101.701 16.3771 101.718 16.3869 C 101.734 16.3967 101.751 16.2814 101.768 16.2914 C 101.784 16.3014 101.801 16.1857 101.818 16.1958 C 101.834 16.206 101.851 16.0898 101.868 16.1002 C 101.884 16.1105 101.901 15.9939 101.918 16.0044 C 101.934 16.0149 101.951 15.898 101.968 15.9086 C 101.984 15.9193 102.001 15.8019 102.018 15.8127 C 102.034 15.8236 102.051 15.7058 102.068 15.7168 C 102.085 15.7278 102.101 15.6095 102.118 15.6207 C 102.135 15.6319 102.151 15.5133 102.168 15.5246 C 102.185 15.536 102.201 15.4169 102.218 15.4284 C 102.235 15.44 102.251 15.3204 102.268 15.3322 C 102.285 15.3439 102.301 15.2239 102.318 15.2358 C 102.335 15.2477 102.351 15.1273 102.368 15.1394 C 102.385 15.1514 102.401 15.0307 102.418 15.0429 C 102.435 15.0551 102.451 14.9339 102.468 14.9463 C 102.485 14.9587 102.501 14.8371 102.518 14.8496 C 102.535 14.8622 102.551 14.7402 102.568 14.7529 C 102.585 14.7656 102.601 14.6432 102.618 14.6561 C 102.635 14.669 102.651 14.5462 102.668 14.5592 C 102.685 14.5722 102.701 14.449 102.718 14.4622 C 102.735 14.4754 102.751 14.3518 102.768 14.3652 C 102.785 14.3785 102.801 14.2545 102.818 14.2681 C 102.835 14.2816 102.851 14.1572 102.868 14.1709 C 102.885 14.1845 102.901 14.0598 102.918 14.0736 C 102.935 14.0874 102.951 13.9622 102.968 13.9762 C 102.985 13.9902 103.001 13.8647 103.018 13.8788 C 103.035 13.8929 103.051 13.767 103.068 13.7813 C 103.085 13.7955 103.101 13.6693 103.118 13.6837 C 103.135 13.6981 103.151 13.5715 103.168 13.586 C 103.185 13.6006 103.201 13.4736 103.218 13.4883 C 103.235 13.503 103.251 13.3756 103.268 13.3905 C 103.285 13.4053 103.301 13.2776 103.318 13.2926 C 103.335 13.3076 103.351 13.1794 103.368 13.1946 C 103.385 13.2097 103.401 13.0813 103.418 13.0965 C 103.435 13.1118 103.451 12.983 103.468 12.9984 C 103.485 13.0138 103.501 12.8846 103.518 12.9002 C 103.535 12.9157 103.551 12.7862 103.568 12.8019 C 103.585 12.8176 103.601 12.6877 103.618 12.7036 C 103.635 12.7194 103.651 12.5892 103.668 12.6051 C 103.685 12.6211 103.702 12.4905 103.718 12.5066 C 103.735 12.5227 103.752 12.3918 103.768 12.408 C 103.785 12.4242 103.802 12.293 103.818 12.3093 C 103.835 12.3257 103.852 12.1941 103.868 12.2106 C 103.885 12.227 103.902 12.0952 103.918 12.1118 C 103.935 12.1283 103.952 11.9961 103.968 12.0129 C 103.985 12.0296 104.002 11.897 104.018 11.9139 C 104.035 11.9307 104.052 11.7979 104.068 11.8148 C 104.085 11.8318 104.102 11.6986 104.118 11.7157 C 104.135 11.7327 104.152 11.5993 104.168 11.6165 C 104.185 11.6336 104.202 11.4999 104.218 11.5172 C 104.235 11.5345 104.252 11.4004 104.268 11.4178 C 104.285 11.4352 104.302 11.3009 104.318 11.3184 C 104.335 11.3359 104.352 11.2012 104.368 11.2188 C 104.385 11.2365 104.402 11.1015 104.418 11.1192 C 104.435 11.137 104.452 11.0017 104.468 11.0196 C 104.485 11.0374 104.502 10.9019 104.518 10.9198 C 104.535 10.9377 104.552 10.8019 104.568 10.82 C 104.585 10.838 104.602 10.7019 104.618 10.7201 C 104.635 10.7382 104.652 10.6018 104.668 10.6201 C 104.685 10.6383 104.702 10.5017 104.718 10.52 C 104.735 10.5383 104.752 10.4015 104.768 10.4199 C 104.785 10.4383 104.802 10.3011 104.818 10.3197 C 104.835 10.3382 104.852 10.2008 104.868 10.2194 C 104.885 10.238 104.902 10.1003 104.918 10.119 C 104.935 10.1377 104.952 9.99976 104.968 10.0185 C 104.985 10.0373 105.002 9.89914 105.018 9.918 C 105.035 9.93686 105.052 9.79846 105.068 9.8174 C 105.085 9.83634 105.102 9.69769 105.118 9.71671 C 105.135 9.73574 105.152 9.59685 105.168 9.61595 C 105.185 9.63505 105.202 9.49594 105.218 9.51512 C 105.235 9.53429 105.252 9.39495 105.268 9.4142 C 105.285 9.43345 105.302 9.29388 105.318 9.31321 C 105.335 9.33253 105.352 9.19274 105.369 9.21214 C 105.385 9.23153 105.402 9.09153 105.419 9.11099 C 105.435 9.13045 105.452 8.99023 105.469 9.00976 C 105.485 9.0293 105.502 8.88887 105.519 8.90846 C 105.535 8.92806 105.552 8.78742 105.569 8.80708 C 105.585 8.82674 105.602 8.6859 105.619 8.70563 C 105.635 8.72535 105.652 8.58431 105.669 8.60409 C 105.685 8.62387 105.702 8.48264 105.719 8.50248 C 105.735 8.52232 105.752 8.3809 105.769 8.40079 C 105.785 8.42068 105.802 8.27908 105.819 8.29902 C 105.835 8.31897 105.852 8.17718 105.869 8.19718 C 105.885 8.21718 105.902 8.07521 105.919 8.09526 C 105.935 8.1153 105.952 7.97317 105.969 7.99326 C 105.985 8.01335 106.002 7.87104 106.019 7.89118 C 106.035 7.91132 106.052 7.76885 106.069 7.78903 C 106.085 7.80921 106.102 7.66658 106.119 7.6868 C 106.135 7.70702 106.152 7.56423 106.169 7.58449 C 106.185 7.60475 106.202 7.46181 106.219 7.4821 C 106.235 7.5024 106.252 7.35931 106.269 7.37964 C 106.285 7.39997 106.302 7.25673 106.319 7.2771 C 106.335 7.29747 106.352 7.15409 106.369 7.17448 C 106.385 7.19488 106.402 7.05136 106.419 7.07179 C 106.435 7.09221 106.452 6.94856 106.469 6.96901 C 106.485 6.98947 106.502 6.84569 106.519 6.86616 C 106.535 6.88664 106.552 6.74274 106.569 6.76324 C 106.585 6.78374 106.602 6.63971 106.619 6.66023 C 106.635 6.68075 106.652 6.53661 106.669 6.55715 C 106.685 6.57769 106.702 6.43343 106.719 6.45399 C 106.735 6.47455 106.752 6.33018 106.769 6.35075 C 106.785 6.37132 106.802 6.22686 106.819 6.24744 C 106.835 6.26802 106.852 6.12345 106.869 6.14405 C 106.885 6.16464 106.902 6.01998 106.919 6.04058 C 106.935 6.06118 106.952 5.91642 106.969 5.93703 C 106.986 5.95764 107.002 5.8128 107.019 5.83341 C 107.036 5.85402 107.052 5.70909 107.069 5.72971 C 107.086 5.75032 107.102 5.60531 107.119 5.62593 C 107.136 5.64654 107.152 5.50146 107.169 5.52207 C 107.186 5.54269 107.202 5.39753 107.219 5.41814 C 107.236 5.43875 107.252 5.29353 107.269 5.31413 C 107.286 5.33473 107.302 5.18945 107.319 5.21004 C 107.336 5.23063 107.352 5.08529 107.369 5.10587 C 107.386 5.12646 107.402 4.98106 107.419 5.00163 C 107.436 5.0222 107.452 4.87675 107.469 4.89731 C 107.486 4.91787 107.502 4.77237 107.519 4.79291 C 107.536 4.81345 107.552 4.66792 107.569 4.68844 C 107.586 4.70896 107.602 4.56338 107.619 4.58389 C 107.636 4.60439 107.652 4.45878 107.669 4.47926 C 107.686 4.49974 107.702 4.35409 107.719 4.37455 C 107.736 4.395 107.752 4.24934 107.769 4.26976 C 107.786 4.29019 107.802 4.1445 107.819 4.1649 C 107.836 4.1853 107.852 4.03959 107.869 4.05996 C 107.886 4.08033 107.902 3.93461 107.919 3.95495 C 107.936 3.97528 107.952 3.82955 107.969 3.84985 C 107.986 3.87015 108.002 3.72442 108.019 3.74468 C 108.036 3.76494 108.052 3.61921 108.069 3.63943 C 108.086 3.65966 108.102 3.51392 108.119 3.53411 C 108.136 3.55429 108.152 3.40856 108.169 3.4287 C 108.186 3.44884 108.202 3.30313 108.219 3.32322 C 108.236 3.34332 108.252 3.19761 108.269 3.21766 C 108.286 3.23771 108.302 3.09203 108.319 3.11203 C 108.336 3.13203 108.352 2.98636 108.369 3.00631 C 108.386 3.02626 108.402 2.88063 108.419 2.90052 C 108.436 2.92042 108.452 2.77481 108.469 2.79465 C 108.486 2.8145 108.502 2.66893 108.519 2.68871 C 108.536 2.70849 108.552 2.56296 108.569 2.58269 C 108.586 2.60241 108.602 2.45692 108.619 2.47659 C 108.636 2.49625 108.653 2.35081 108.669 2.37041 C 108.686 2.39001 108.703 2.24462 108.719 2.26415 C 108.736 2.28369 108.753 2.13835 108.769 2.15782 C 108.786 2.17729 108.803 2.03201 108.819 2.05141 C 108.836 2.07081 108.853 1.9256 108.869 1.94493 C 108.886 1.96425 108.903 1.8191 108.919 1.83836 C 108.936 1.85762 108.953 1.71254 108.969 1.73172 C 108.986 1.7509 109.003 1.60589 109.019 1.625 C 109.036 1.64411 109.053 1.49918 109.069 1.5182 C 109.086 1.53723 109.103 1.39238 109.119 1.41133 C 109.136 1.43028 109.153 1.28551 109.169 1.30438 C 109.186 1.32324 109.203 1.17857 109.219 1.19735 C 109.236 1.21613 109.253 1.07155 109.269 1.09024 C 109.286 1.10894 109.303 0.964454 109.319 0.98306 C 109.336 1.00167 109.353 0.857282 109.369 0.875799 C 109.386 0.894316 109.403 0.750036 109.419 0.768461 C 109.436 0.786886 109.453 0.642714 109.469 0.661045 C 109.486 0.679377 109.503 0.535316 109.519 0.553552 C 109.536 0.571788 109.553 0.427843 109.569 0.445982 C 109.586 0.464121 109.603 0.320294 109.619 0.338334 C 109.636 0.356374 109.653 0.21267 109.669 0.230609 C 109.686 0.248548 109.703 0.10497 109.719 0.122806 C 109.736 0.140643 109.753 -0.00280603 109.769 0.0149264 C 109.786 0.0326588 109.803 -0.110657 109.819 -0.0930309 C 109.836 -0.0754046 109.853 -0.218584 109.869 -0.201066 C 109.886 -0.183547 109.903 -0.326586 109.919 -0.309178 C 109.936 -0.291769 109.953 -0.434665 109.969 -0.417367"
       title="0.0625 * (x) * (x) + 0.5 * (x) + 1"
       id="path7" />
    <path
       style="fill:none;stroke:#000000;stroke-width:0.3;stroke-dasharray:none"
       d="M 60.000001,69.999999 110,13.750001 190.00001,55"
       id="path1"
       sodipodi:nodetypes="ccc" />
    <circle
       style="fill:#ffffff;fill-opacity:1;stroke:#000000;stroke-width:0.3;stroke-opacity:1"
       id="path6-9-8"
       cx="130"
       cy="24.057604"
       r="0.625" />
    <rect
       style="fill:#00ff00;fill-opacity:0.3;stroke:#000000;stroke-width:0.138969;stroke-dasharray:none;stroke-opacity:1"
       id="rect6"
       width="24.982861"
       height="47.106079"
       x="84.997658"
       y="27.874441" />
    <circle
       style="fill:#ffffff;fill-opacity:1;stroke:#000000;stroke-width:0.3;stroke-opacity:1"
       id="path6-9-8-9"
       cx="97.499054"
       cy="27.850842"
       r="0.625" />
  </g>
</svg>
