<?xml version="1.0" encoding="UTF-8" standalone="no"?>
<!-- Created with Inkscape (http://www.inkscape.org/) -->

<svg
   width="160mm"
   height="79.999992mm"
   viewBox="0 0 160 79.999992"
   version="1.1"
   id="svg5"
   inkscape:version="1.4.2 (f4327f4, 2025-05-13)"
   sodipodi:docname="1d-integration.svg"
   xmlns:inkscape="http://www.inkscape.org/namespaces/inkscape"
   xmlns:sodipodi="http://sodipodi.sourceforge.net/DTD/sodipodi-0.dtd"
   xmlns="http://www.w3.org/2000/svg"
   xmlns:svg="http://www.w3.org/2000/svg">
  <sodipodi:namedview
     id="namedview7"
     pagecolor="#ffffff"
     bordercolor="#000000"
     borderopacity="0.25"
     inkscape:showpageshadow="2"
     inkscape:pageopacity="0.0"
     inkscape:pagecheckerboard="0"
     inkscape:deskcolor="#d1d1d1"
     inkscape:document-units="mm"
     showgrid="true"
     inkscape:zoom="1.0406413"
     inkscape:cx="237.83411"
     inkscape:cy="169.60695"
     inkscape:window-width="1920"
     inkscape:window-height="1111"
     inkscape:window-x="-9"
     inkscape:window-y="-9"
     inkscape:window-maximized="1"
     inkscape:current-layer="layer1">
    <inkscape:grid
       id="grid4"
       units="mm"
       originx="0"
       originy="0"
       spacingx="1.25"
       spacingy="1.25"
       empcolor="#0099e5"
       empopacity="0.30196078"
       color="#0099e5"
       opacity="0.14901961"
       empspacing="4"
       enabled="true"
       visible="true" />
  </sodipodi:namedview>
  <defs
     id="defs2" />
  <g
     inkscape:label="Layer 1"
     inkscape:groupmode="layer"
     id="layer1"
     transform="translate(-45,-5.000001)">
    <path
       style="fill:#00ff00;fill-opacity:0.3;stroke:#000000;stroke-width:0.1;stroke-opacity:1;stroke-dasharray:none"
       d="M 85.000002,74.999997 H 110 l 0,-34.999995 H 85.000001 Z"
       id="path1"
       sodipodi:nodetypes="ccccc" />
    <path
       style="fill:#00ff00;fill-opacity:0.3;stroke:#000000;stroke-width:0.1;stroke-opacity:1;stroke-dasharray:none"
       d="m 150,74.999997 0,-49.999995 h -40 l 0,49.999995 z"
       id="path2"
       sodipodi:nodetypes="ccccc" />
    <circle
       style="fill:#000000;fill-opacity:1;stroke:#000000;stroke-width:0.3;stroke-dasharray:none;stroke-opacity:1"
       id="path2190-1"
       cx="60"
       cy="70"
       r="1.25" />
    <path
       style="fill:#ffffff;stroke:#0000ff;stroke-width:0.3;stroke-dasharray:none;stroke-opacity:1"
       d="m 84.921406,75 0.07859,-64.999999"
       id="path2134"
       sodipodi:nodetypes="cc" />
    <path
       style="fill:#ffffff;stroke:#0000ff;stroke-width:0.3;stroke-dasharray:none;stroke-opacity:1"
       d="m 150,75 0,-64.999999"
       id="path2136"
       sodipodi:nodetypes="cc" />
    <circle
       style="fill:#000000;fill-opacity:1;stroke:#000000;stroke-width:0.3;stroke-dasharray:none;stroke-opacity:1"
       id="path2190"
       cx="109.99999"
       cy="30.000002"
       r="1.25" />
    <circle
       style="fill:#000000;fill-opacity:1;stroke:#000000;stroke-width:0.3;stroke-dasharray:none;stroke-opacity:1"
       id="path2190-4"
       cx="190"
       cy="10"
       r="1.25" />
    <path
       style="fill:#000000;fill-opacity:1;stroke:#000000;stroke-width:0.3;stroke-dasharray:0.3, 0.9;stroke-dashoffset:0;stroke-opacity:1"
       d="m 60,70 v 5"
       id="path5733" />
    <path
       style="fill:#000000;fill-opacity:1;stroke:#000000;stroke-width:0.5;stroke-dasharray:0.5, 1.5;stroke-dashoffset:0;stroke-opacity:1"
       d="m 109.9841,29.968227 v 45"
       id="path5735" />
    <path
       style="fill:#000000;fill-opacity:1;stroke:#000000;stroke-width:0.3;stroke-dasharray:0.3, 0.899999;stroke-dashoffset:0;stroke-opacity:1"
       d="M 190.10645,9.9398474 V 74.939847"
       id="path5737"
       sodipodi:nodetypes="cc" />
    <text
       xml:space="preserve"
       style="font-size:3.52777px;fill:#000000;fill-opacity:1;stroke:#000000;stroke-width:0;stroke-dasharray:none;stroke-dashoffset:0;stroke-opacity:1"
       x="60"
       y="80"
       id="text5793"><tspan
         sodipodi:role="line"
         id="tspan5791"
         style="stroke-width:0;stroke-dasharray:none"
         x="60"
         y="80">$x_{i-1}$</tspan></text>
    <text
       xml:space="preserve"
       style="font-size:3.52777px;fill:#000000;fill-opacity:1;stroke:#000000;stroke-width:0;stroke-dasharray:none;stroke-dashoffset:0;stroke-opacity:1"
       x="85"
       y="80"
       id="text5793-4"><tspan
         sodipodi:role="line"
         id="tspan5791-0"
         style="stroke-width:0;stroke-dasharray:none"
         x="85"
         y="80">$x_{i-\frac12}$</tspan></text>
    <text
       xml:space="preserve"
       style="font-size:3.52777px;fill:#000000;fill-opacity:1;stroke:#000000;stroke-width:0;stroke-dasharray:none;stroke-dashoffset:0;stroke-opacity:1"
       x="148.75"
       y="80"
       id="text5793-3"><tspan
         sodipodi:role="line"
         id="tspan5791-56"
         style="stroke-width:0;stroke-dasharray:none"
         x="148.75"
         y="80">$x_{i+\frac12}$</tspan></text>
    <text
       xml:space="preserve"
       style="font-size:3.52777px;fill:#000000;fill-opacity:1;stroke:#000000;stroke-width:0;stroke-dasharray:none;stroke-dashoffset:0;stroke-opacity:1"
       x="110"
       y="80"
       id="text5793-8"><tspan
         sodipodi:role="line"
         id="tspan5791-1"
         style="stroke-width:0;stroke-dasharray:none"
         x="110"
         y="80">$x_{i}$</tspan></text>
    <text
       xml:space="preserve"
       style="font-size:3.52777px;fill:#000000;fill-opacity:1;stroke:#000000;stroke-width:0;stroke-dasharray:none;stroke-dashoffset:0;stroke-opacity:1"
       x="190"
       y="80"
       id="text5793-1"><tspan
         sodipodi:role="line"
         id="tspan5791-5"
         style="stroke-width:0;stroke-dasharray:none"
         x="190"
         y="80">$x_{i+1}$</tspan></text>
    <path
       style="fill:none;fill-opacity:1;stroke:#000000;stroke-width:0;stroke-dasharray:none;stroke-dashoffset:0;stroke-opacity:1"
       d="m 97.5,72.5 c 0,1.666667 0,3.333333 0,5"
       id="path7711"
       sodipodi:nodetypes="cc" />
    <path
       style="fill:#00ff00;fill-opacity:0;stroke:#000000;stroke-width:1;stroke-dasharray:none;stroke-opacity:1"
       d="m 60.316301,69.532099 c 0.0434,-0.0363 0.0868,-0.0984 0.1301,-0.1313 0.0434,-0.0329 0.0868,-0.1021 0.1302,-0.1311 0.0433,-0.029 0.0867,-0.1064 0.1301,-0.131 0.0434,-0.0246 0.0867,-0.111 0.1301,-0.1308 0.0434,-0.0198 0.0868,-0.1161 0.1302,-0.1307 0.0433,-0.0146 0.0867,-0.1213 0.1301,-0.1306 0.0434,-0.0092 0.0867,-0.1267 0.1301,-0.1304 0.0434,-0.0036 0.0868,-0.1322 0.1301,-0.1302 0.0434,0.0019 0.0868,-0.1377 0.1302,-0.1301 0.0433,0.0075 0.0867,-0.143 0.1301,-0.13 0.0434,0.013 0.0868,-0.1481 0.1301,-0.1298 0.0434,0.0182 0.0868,-0.1529 0.1302,-0.1297 0.0433,0.0232 0.0867,-0.1573 0.1301,-0.1296 0.0434,0.0278 0.0867,-0.1612 0.1301,-0.1294 0.0434,0.0318 0.0868,-0.1645 0.1302,-0.1292 0.0433,0.0353 0.0867,-0.1674 0.1301,-0.1291 0.0434,0.0382 0.0867,-0.1696 0.1301,-0.129 0.0434,0.0405 0.0868,-0.171 0.1301,-0.1288 0.0434,0.0421 0.0868,-0.1718 0.1302,-0.1287 0.0433,0.043 0.0867,-0.1718 0.1301,-0.1286 0.0434,0.0432 0.0868,-0.171 0.1301,-0.1284 0.0434,0.0427 0.0868,-0.1696 0.1302,-0.1282 0.0433,0.0413 0.0867,-0.1675 0.1301,-0.1281 0.0434,0.0393 0.0867,-0.1647 0.1301,-0.128 0.0434,0.0367 0.0868,-0.1612 0.1302,-0.1278 0.0433,0.0334 0.0867,-0.1573 0.1301,-0.1277 0.0434,0.0296 0.0867,-0.1528 0.1301,-0.1275 0.0434,0.0252 0.0868,-0.1479 0.1301,-0.1274 0.0434,0.0204 0.0868,-0.1427 0.1302,-0.1273 0.0434,0.0154 0.0867,-0.1371 0.1301,-0.1271 0.0434,0.01 0.0868,-0.1314 0.1301,-0.127 0.0434,0.0045 0.0868,-0.1256 0.1302,-0.1268 0.0433,-0.0012 0.0867,-0.1199 0.1301,-0.1267 0.0434,-0.0067 0.0867,-0.1143 0.1301,-0.1265 0.0434,-0.0123 0.0868,-0.1089 0.1302,-0.1264 0.0433,-0.0175 0.0867,-0.1037 0.1301,-0.1262 0.0434,-0.0226 0.0867,-0.0991 0.1301,-0.1262 0.0434,-0.0271 0.0868,-0.0947 0.1301,-0.1259 0.0434,-0.0313 0.0868,-0.091 0.1302,-0.1258 0.0434,-0.0349 0.0867,-0.0878 0.1301,-0.1257 0.0434,-0.0379 0.0868,-0.0853 0.1301,-0.1256 0.0434,-0.0402 0.0868,-0.0834 0.1302,-0.1253 0.0433,-0.042 0.0867,-0.0823 0.1301,-0.1253 0.0434,-0.043 0.0867,-0.0819 0.1301,-0.1251 0.0434,-0.0432 0.0868,-0.0822 0.1302,-0.125 0.0433,-0.0427 0.0867,-0.0832 0.1301,-0.1248 0.0434,-0.0416 0.0867,-0.085 0.1301,-0.1247 0.0434,-0.0396 0.0868,-0.0874 0.1301,-0.1245 0.0434,-0.0371 0.0868,-0.0905 0.1302,-0.1244 0.0434,-0.0339 0.0867,-0.0941 0.1301,-0.1242 0.0434,-0.0302 0.0868,-0.0982 0.1301,-0.1241 0.0434,-0.0259 0.0868,-0.1028 0.1302,-0.124 0.0433,-0.0212 0.0867,-0.1077 0.1301,-0.1238 0.0434,-0.0161 0.0868,-0.1129 0.1301,-0.1237 0.0434,-0.0108 0.0868,-0.1183 0.1302,-0.1235 0.0433,-0.0053 0.0867,-0.1238 0.1301,-0.1234 0.0434,4e-4 0.0867,-0.1292 0.1301,-0.1233 0.0434,0.006 0.0868,-0.1345 0.1301,-0.1231 0.0434,0.0115 0.0868,-0.1397 0.1302,-0.1229 0.0434,0.0168 0.0867,-0.1447 0.1301,-0.1228 0.0434,0.0218 0.0868,-0.1492 0.1301,-0.1227 0.0434,0.0265 0.0868,-0.1532 0.1302,-0.1225 0.0433,0.0306 0.0867,-0.1568 0.1301,-0.1224 0.0434,0.0344 0.0868,-0.1598 0.1301,-0.1223 0.0434,0.0375 0.0868,-0.162 0.1302,-0.1221 0.0433,0.04 0.0867,-0.1637 0.1301,-0.1219 0.0434,0.0417 0.0867,-0.1647 0.1301,-0.1218 0.0434,0.0428 0.0868,-0.1649 0.1301,-0.1217 0.0434,0.0432 0.0868,-0.1644 0.1302,-0.1215 0.0434,0.0428 0.0867,-0.1632 0.1301,-0.1214 0.0434,0.0418 0.0868,-0.1613 0.1301,-0.1213 0.0434,0.04 0.0868,-0.1586 0.1302,-0.1211 0.0433,0.0376 0.0867,-0.1553 0.1301,-0.1209 0.0434,0.0344 0.0868,-0.1516 0.1301,-0.1208 0.0434,0.0307 0.0868,-0.1472 0.1302,-0.1207 0.0433,0.0265 0.0867,-0.1424 0.1301,-0.1205 0.0434,0.0218 0.0867,-0.1373 0.1301,-0.1204 0.0434,0.0168 0.0868,-0.1318 0.1302,-0.1203 0.0433,0.0116 0.0867,-0.1261 0.1301,-0.1201 0.0434,0.0061 0.0867,-0.1203 0.1301,-0.1199 0.0434,4e-4 0.0868,-0.1146 0.1301,-0.1198 0.0434,-0.0052 0.0868,-0.109 0.1302,-0.1197 0.0433,-0.0107 0.0867,-0.1035 0.1301,-0.1195 0.0434,-0.0161 0.0868,-0.0983 0.1301,-0.1194 0.0434,-0.0211 0.0868,-0.0934 0.1302,-0.1192 0.0433,-0.0259 0.0867,-0.089 0.1301,-0.1191 0.0434,-0.0301 0.0867,-0.0851 0.1301,-0.119 0.0434,-0.0339 0.0868,-0.0817 0.1302,-0.1188 0.0433,-0.0371 0.0867,-0.079 0.1301,-0.1187 0.0434,-0.0396 0.0867,-0.0769 0.1301,-0.1185 0.0434,-0.0415 0.0868,-0.0756 0.1301,-0.1184 0.0434,-0.0427 0.0868,-0.075 0.1302,-0.1182 0.0433,-0.0432 0.0867,-0.0751 0.1301,-0.1181 0.0434,-0.043 0.0868,-0.076 0.1301,-0.1179 0.0434,-0.042 0.0868,-0.0776 0.1302,-0.1178 0.0433,-0.0403 0.0867,-0.0798 0.1301,-0.1177 0.0434,-0.0379 0.0867,-0.0826 0.1301,-0.1175 0.0434,-0.0349 0.0868,-0.0861 0.1302,-0.1174 0.0433,-0.0313 0.0867,-0.0901 0.1301,-0.1172 0.0434,-0.0272 0.0867,-0.0946 0.1301,-0.1171 0.0434,-0.0226 0.0868,-0.0994 0.1301,-0.117 0.0434,-0.0176 0.0868,-0.1045 0.1302,-0.1168 0.0433,-0.0123 0.0867,-0.1098 0.1301,-0.1166 0.0434,-0.0069 0.0868,-0.1153 0.1301,-0.1166 0.0434,-0.0012 0.0868,-0.1207 0.1302,-0.1163 0.0433,0.0044 0.0867,-0.1262 0.1301,-0.1163 0.0434,0.01 0.0867,-0.1314 0.1301,-0.1161 0.0434,0.0153 0.0868,-0.1363 0.1302,-0.1159 0.0433,0.0204 0.0867,-0.141 0.1301,-0.1158 0.0434,0.0252 0.0867,-0.1452 0.1301,-0.1157 0.0434,0.0296 0.0868,-0.1489 0.1301,-0.1155 0.0434,0.0334 0.0868,-0.152 0.1302,-0.1154 0.0434,0.0367 0.0867,-0.1545 0.1301,-0.1152 0.0434,0.0393 0.0868,-0.1564 0.1301,-0.1151 0.0434,0.0413 0.0868,-0.1576 0.1302,-0.1149 0.0433,0.0426 0.0867,-0.158 0.1301,-0.1148 0.0434,0.0432 0.0867,-0.1577 0.1301,-0.1147 0.0434,0.0431 0.0868,-0.1567 0.1302,-0.1145 0.0433,0.0422 0.0867,-0.1549 0.1301,-0.1144 0.0434,0.0406 0.0867,-0.1525 0.1301,-0.1142 0.0434,0.0383 0.0868,-0.1494 0.1301,-0.1141 0.0434,0.0354 0.0868,-0.1458 0.1302,-0.1139 0.0434,0.0318 0.0867,-0.1416 0.1301,-0.1138 0.0434,0.0277 0.0868,-0.1369 0.1301,-0.1137 0.0434,0.0232 0.0868,-0.1318 0.1302,-0.1135 0.0433,0.0183 0.0867,-0.1264 0.1301,-0.1134 0.0434,0.0131 0.0867,-0.1208 0.1301,-0.1132 0.0434,0.0076 0.0868,-0.1151 0.1302,-0.1131 0.0433,0.002 0.0867,-0.1093 0.1301,-0.1129 0.0434,-0.0036 0.0867,-0.1037 0.1301,-0.1128 0.0434,-0.0092 0.0868,-0.0981 0.1301,-0.1127 0.0434,-0.0145 0.0868,-0.0928 0.1302,-0.1125 0.0434,-0.0197 0.0867,-0.0878 0.1301,-0.1124 0.0434,-0.0245 0.0868,-0.0832 0.1301,-0.1122 0.0434,-0.0289 0.0868,-0.0792 0.1302,-0.1121 0.0433,-0.0328 0.0867,-0.0757 0.1301,-0.1119 0.0434,-0.0362 0.0868,-0.0728 0.1301,-0.1118 0.0434,-0.039 0.0868,-0.0706 0.1302,-0.1116 0.0433,-0.0411 0.0867,-0.0691 0.1301,-0.1116 0.0434,-0.0424 0.0867,-0.0682 0.1301,-0.1113 0.0434,-0.0432 0.0868,-0.0681 0.1301,-0.1112 0.0434,-0.0432 0.0868,-0.0688 0.1302,-0.1111 0.0434,-0.0424 0.0867,-0.0701 0.1301,-0.111 0.0434,-0.0408 0.0868,-0.0721 0.1301,-0.1108 0.0434,-0.0386 0.0868,-0.0748 0.1302,-0.1106 0.0433,-0.0358 0.0867,-0.0781 0.1301,-0.1105 0.0434,-0.0324 0.0868,-0.082 0.1301,-0.1104 0.0434,-0.0284 0.0868,-0.0863 0.1302,-0.1102 0.0433,-0.0239 0.0867,-0.0911 0.1301,-0.1101 0.0434,-0.019 0.0867,-0.0961 0.1301,-0.1099 0.0434,-0.0138 0.0868,-0.1014 0.1301,-0.1098 0.0434,-0.0084 0.0868,-0.1068 0.1302,-0.1097 0.0434,-0.0028 0.0867,-0.1123 0.1301,-0.1095 0.0434,0.0028 0.0868,-0.1177 0.1301,-0.1093 0.0434,0.0083 0.0868,-0.1231 0.1302,-0.1092 0.0433,0.0138 0.0867,-0.1281 0.1301,-0.1091 0.0434,0.019 0.0868,-0.1328 0.1301,-0.109 0.0434,0.0239 0.0868,-0.1371 0.1302,-0.1087 0.0433,0.0283 0.0867,-0.141 0.1301,-0.1087 0.0434,0.0324 0.0867,-0.1443 0.1301,-0.1085 0.0434,0.0358 0.0868,-0.147 0.1302,-0.1084 0.0433,0.0387 0.0867,-0.149 0.1301,-0.1082 0.0434,0.0409 0.0867,-0.1504 0.1301,-0.1081 0.0434,0.0424 0.0868,-0.151 0.1301,-0.1079 0.0434,0.0431 0.0868,-0.1509 0.1302,-0.1078 0.0433,0.0432 0.0867,-0.1501 0.1301,-0.1076 0.0434,0.0425 0.0868,-0.1486 0.1301,-0.1075 0.0434,0.0411 0.0868,-0.1464 0.1302,-0.1074 0.0433,0.039 0.0867,-0.1434 0.1301,-0.1072 0.0434,0.0363 0.0867,-0.14 0.1301,-0.1071 0.0434,0.0329 0.0868,-0.1359 0.1302,-0.1069 0.0433,0.029 0.0867,-0.1313 0.1301,-0.1068 0.0434,0.0246 0.0867,-0.1264 0.1301,-0.1066 0.0434,0.0197 0.0868,-0.1211 0.1301,-0.1065 0.0434,0.0146 0.0868,-0.1156 0.1302,-0.1064 0.0433,0.0092 0.0867,-0.1098 0.1301,-0.1062 0.0434,0.0036 0.0868,-0.1041 0.1301,-0.1061 0.0434,-0.002 0.0868,-0.0983 0.1302,-0.1059 0.0433,-0.0076 0.0867,-0.0927 0.1301,-0.1058 0.0434,-0.013 0.0867,-0.0873 0.1301,-0.1056 0.0434,-0.0183 0.0868,-0.0823 0.1302,-0.1055 0.0433,-0.0232 0.0867,-0.0776 0.1301,-0.1054 0.0434,-0.0277 0.0867,-0.0734 0.1301,-0.1052 0.0434,-0.0318 0.0868,-0.0697 0.1301,-0.1051 0.0434,-0.0353 0.0868,-0.0666 0.1302,-0.1049 0.0434,-0.0383 0.0867,-0.0642 0.1301,-0.1048 0.0434,-0.0405 0.0868,-0.0624 0.1301,-0.1046 0.0434,-0.0422 0.0868,-0.0615 0.1302,-0.1045 0.0433,-0.043 0.0867,-0.0612 0.1301,-0.1044 0.0434,-0.0432 0.0867,-0.0615 0.1301,-0.1042 0.0434,-0.0426 0.0868,-0.0627 0.1302,-0.104 0.0433,-0.0414 0.0867,-0.0646 0.1301,-0.104 0.0434,-0.0393 0.0867,-0.0671 0.1301,-0.1037 0.0434,-0.0367 0.0868,-0.0703 0.1301,-0.1037 0.0434,-0.0334 0.0868,-0.0739 0.1302,-0.1035 0.0434,-0.0295 0.0867,-0.0781 0.1301,-0.1033 0.0434,-0.0252 0.0868,-0.0828 0.1301,-0.1032 0.0434,-0.0205 0.0868,-0.0878 0.1302,-0.1031 0.0433,-0.0153 0.0867,-0.093 0.1301,-0.1029 0.0434,-0.01 0.0867,-0.0984 0.1301,-0.1028 0.0434,-0.0044 0.0868,-0.1038 0.1302,-0.1026 0.0433,0.0012 0.0867,-0.1093 0.1301,-0.1025 0.0434,0.0068 0.0867,-0.1147 0.1301,-0.1024 0.0434,0.0123 0.0868,-0.1197 0.1301,-0.1022 0.0434,0.0176 0.0868,-0.1246 0.1302,-0.102 0.0434,0.0225 0.0867,-0.1291 0.1301,-0.102 0.0434,0.0272 0.0868,-0.133 0.1301,-0.1017 0.0434,0.0312 0.0868,-0.1366 0.1302,-0.1017 0.0433,0.0349 0.0867,-0.1394 0.1301,-0.1015 0.0434,0.0379 0.0868,-0.1416 0.1301,-0.1013 0.0434,0.0403 0.0868,-0.1432 0.1302,-0.1012 0.0433,0.042 0.0867,-0.144 0.1301,-0.1011 0.0434,0.043 0.0867,-0.1441 0.1301,-0.1009 0.0434,0.0432 0.0868,-0.1435 0.1301,-0.1008 0.0434,0.0428 0.0868,-0.1422 0.1302,-0.1006 0.0434,0.0416 0.0867,-0.1402 0.1301,-0.1005 0.0434,0.0397 0.0868,-0.1374 0.1301,-0.1003 0.0434,0.0371 0.0868,-0.1342 0.1302,-0.1003 0.0433,0.034 0.0867,-0.1301 0.1301,-0.1 0.0434,0.0301 0.0868,-0.1258 0.1301,-0.0999 0.0434,0.0258 0.0868,-0.1209 0.1302,-0.0998 0.0433,0.0211 0.0867,-0.1157 0.1301,-0.0996 0.0434,0.016 0.0867,-0.1103 0.1301,-0.0995 0.0434,0.0107 0.0868,-0.1046 0.1301,-0.0994 0.0434,0.0052 0.0868,-0.0988 0.1302,-0.0992 0.0434,-4e-4 0.0867,-0.093 0.1301,-0.099 0.0434,-0.006 0.0868,-0.0874 0.1301,-0.0989 0.0434,-0.0116 0.0868,-0.082 0.1302,-0.0988 0.0433,-0.0168 0.0867,-0.0768 0.1301,-0.0986 0.0434,-0.0219 0.0868,-0.072 0.1301,-0.0985 0.0434,-0.0265 0.0868,-0.0676 0.1302,-0.0984 0.0433,-0.0307 0.0867,-0.0638 0.1301,-0.0982 0.0434,-0.0344 0.0867,-0.0605 0.1301,-0.098 0.0434,-0.0375 0.0868,-0.058 0.1302,-0.0979 0.0433,-0.04 0.0867,-0.056 0.1301,-0.0978 0.0434,-0.0418 0.0867,-0.0548 0.1301,-0.0976 0.0434,-0.0429 0.0868,-0.0543 0.1301,-0.0975 0.0434,-0.0432 0.0868,-0.0545 0.1302,-0.0974 0.0433,-0.0428 0.0867,-0.0554 0.1301,-0.0972 0.0434,-0.0417 0.0868,-0.057 0.1301,-0.097 0.0434,-0.04 0.0868,-0.0594 0.1302,-0.0969 0.0433,-0.0375 0.0867,-0.0624 0.1301,-0.0968 0.0434,-0.0344 0.0867,-0.0659 0.1301,-0.0966 0.0434,-0.0307 0.0868,-0.07 0.1302,-0.0965 0.0433,-0.0265 0.0867,-0.0745 0.1301,-0.0963 0.0434,-0.0219 0.0867,-0.0794 0.1301,-0.0962 0.0434,-0.0168 0.0868,-0.0846 0.1301,-0.0961 0.0434,-0.0115 0.0868,-0.0899 0.1302,-0.0959 0.0433,-0.006 0.0867,-0.0954 0.1301,-0.0958 0.0434,-3e-4 0.0868,-0.1008 0.1301,-0.0956 0.0434,0.0052 0.0868,-0.1062 0.1302,-0.0955 0.0433,0.0108 0.0867,-0.1114 0.1301,-0.0953 0.0434,0.0161 0.0867,-0.1163 0.1301,-0.0952 0.0434,0.0212 0.0868,-0.1209 0.1302,-0.095 0.0433,0.0258 0.0867,-0.1251 0.1301,-0.0949 0.0434,0.0301 0.0867,-0.1287 0.1301,-0.0948 0.0434,0.0339 0.0868,-0.1317 0.1301,-0.0946 0.0434,0.0371 0.0868,-0.1342 0.1302,-0.0945 0.0434,0.0397 0.0867,-0.1359 0.1301,-0.0943 0.0434,0.0415 0.0868,-0.137 0.1301,-0.0942 0.0434,0.0427 0.0868,-0.1373 0.1302,-0.0941 0.0433,0.0432 0.0867,-0.1369 0.1301,-0.0939 0.0434,0.043 0.0867,-0.1357 0.1301,-0.0938 0.0434,0.042 0.0868,-0.1338 0.1302,-0.0936 0.0433,0.0403 0.0867,-0.1313 0.1301,-0.0934 0.0434,0.0378 0.0867,-0.1283 0.1301,-0.0934 0.0434,0.0349 0.0868,-0.1244 0.1301,-0.0932 0.0434,0.0313 0.0868,-0.1201 0.1302,-0.093 0.0434,0.0271 0.0867,-0.1154 0.1301,-0.0929 0.0434,0.0225 0.0868,-0.1103 0.1301,-0.0928 0.0434,0.0176 0.0868,-0.1049 0.1302,-0.0926 0.0433,0.0123 0.0867,-0.0993 0.1301,-0.0925 0.0434,0.0068 0.0867,-0.0935 0.1301,-0.0923 0.0434,0.0012 0.0868,-0.0878 0.1302,-0.0922 0.0433,-0.0044 0.0867,-0.0821 0.1301,-0.092 0.0434,-0.01 0.0867,-0.0766 0.1301,-0.0919 0.0434,-0.0154 0.0868,-0.0713 0.1301,-0.0918 0.0434,-0.0205 0.0868,-0.0664 0.1302,-0.0916 0.0434,-0.0252 0.0867,-0.0619 0.1301,-0.0915 0.0434,-0.0296 0.0868,-0.0579 0.1301,-0.0913 0.0434,-0.0334 0.0868,-0.0545 0.1302,-0.0912 0.0433,-0.0367 0.0867,-0.0517 0.1301,-0.091 0.0434,-0.0394 0.0868,-0.0496 0.1301,-0.0909 0.0434,-0.0414 0.0868,-0.0482 0.1302,-0.0908 0.0433,-0.0426 0.0867,-0.0474 0.1301,-0.0906 0.0434,-0.0432 0.0867,-0.0474 0.1301,-0.0905 0.0434,-0.043 0.0868,-0.0482 0.1301,-0.0903 0.0434,-0.0422 0.0868,-0.0496 0.1302,-0.0902 0.0434,-0.0406 0.0867,-0.0518 0.1301,-0.09 0.0434,-0.0383 0.0868,-0.0546 0.1301,-0.0899 0.0434,-0.0354 0.0868,-0.058 0.1302,-0.0898 0.0433,-0.0318 0.0867,-0.0619 0.1301,-0.0896 0.0434,-0.0277 0.0868,-0.0663 0.1301,-0.0895 0.0434,-0.0232 0.0868,-0.071 0.1302,-0.0893 0.0433,-0.0183 0.0867,-0.0761 0.1301,-0.0892 0.0434,-0.013 0.0867,-0.0814 0.1301,-0.089 0.0434,-0.0076 0.0868,-0.0869 0.1301,-0.0889 0.0434,-0.002 0.0868,-0.0924 0.1302,-0.0888 0.0434,0.0037 0.0867,-0.0978 0.1301,-0.0886 0.0434,0.0092 0.0868,-0.103 0.1301,-0.0884 0.0434,0.0145 0.0868,-0.1081 0.1302,-0.0884 0.0433,0.0198 0.0867,-0.1127 0.1301,-0.0882 0.0434,0.0246 0.0868,-0.117 0.1301,-0.088 0.0434,0.029 0.0868,-0.1208 0.1302,-0.0879 0.0433,0.0329 0.0867,-0.124 0.130099,-0.0877 0.0434,0.0362 0.0867,-0.1267 0.1301,-0.0876 0.0434,0.039 0.0868,-0.1286 0.1301,-0.0875 0.0434,0.0411 0.0871,-0.1298 0.1301,-0.0873 0.043,0.0425 0.087,-0.1304 0.13,-0.0872 0.044,0.0432 0.087,-0.1302 0.13,-0.087 0.044,0.0431 0.087,-0.1293 0.13,-0.0869 0.044,0.0423 0.087,-0.1276 0.131,-0.0868 0.043,0.0408 0.086,-0.1252 0.13,-0.0866 0.043,0.0386 0.086,-0.1223 0.13,-0.0865 0.043,0.0358 0.087,-0.1186 0.13,-0.0863 0.043,0.0324 0.087,-0.1145 0.13,-0.0862 0.043,0.0284 0.087,-0.1099 0.13,-0.086 0.044,0.0239 0.087,-0.1049 0.13,-0.0859 0.044,0.019 0.087,-0.0995 0.131,-0.0857 0.043,0.0138 0.086,-0.094 0.13,-0.0856 0.043,0.0083 0.086,-0.0883 0.13,-0.0855 0.043,0.0028 0.087,-0.0825 0.13,-0.0853 0.043,-0.0028 0.087,-0.0768 0.13,-0.0852 0.043,-0.0084 0.087,-0.0712 0.13,-0.085 0.044,-0.0139 0.087,-0.0659 0.13,-0.0849 0.044,-0.019 0.087,-0.0608 0.13,-0.0848 0.044,-0.0239 0.087,-0.0562 0.131,-0.0846 0.043,-0.0283 0.086,-0.052 0.13,-0.0844 0.043,-0.0324 0.086,-0.0485 0.13,-0.0843 0.043,-0.0359 0.087,-0.0455 0.13,-0.0842 0.043,-0.0387 0.087,-0.0432 0.13,-0.084 0.043,-0.0409 0.087,-0.0416 0.13,-0.0839 0.044,-0.0424 0.087,-0.0407 0.13,-0.0838 0.044,-0.0431 0.087,-0.0404 0.13,-0.0836 0.044,-0.0431 0.087,-0.0409 0.131,-0.0834 0.043,-0.0425 0.086,-0.0423 0.13,-0.0833 0.043,-0.0411 0.086,-0.0442 0.13,-0.0832 0.043,-0.039 0.087,-0.0468 0.13,-0.083 0.043,-0.0363 0.087,-0.0501 0.13,-0.0829 0.043,-0.0329 0.087,-0.0538 0.13,-0.0828 0.044,-0.0289 0.087,-0.058 0.13,-0.0826 0.044,-0.0245 0.087,-0.0627 0.131,-0.0824 0.043,-0.0197 0.086,-0.0678 0.13,-0.0823 0.043,-0.0146 0.086,-0.0731 0.13,-0.0822 0.043,-0.0091 0.087,-0.0784 0.13,-0.082 0.043,-0.0036 0.087,-0.084 0.13,-0.0819 0.043,0.002 0.087,-0.0894 0.13,-0.0818 0.044,0.0077 0.087,-0.0946 0.13,-0.0816 0.044,0.0131 0.087,-0.0997 0.13,-0.0814 0.044,0.0183 0.087,-0.1046 0.131,-0.0813 0.043,0.0232 0.086,-0.109 0.13,-0.0812 0.043,0.0278 0.086,-0.1129 0.13,-0.081 0.043,0.0318 0.087,-0.1163 0.13,-0.0809 0.043,0.0354 0.087,-0.119 0.13,-0.0807 0.043,0.0383 0.087,-0.1212 0.13,-0.0806 0.044,0.0406 0.087,-0.1226 0.13,-0.0805 0.044,0.0422 0.087,-0.1233 0.13,-0.0803 0.044,0.0431 0.087,-0.1234 0.131,-0.0802 0.043,0.0433 0.086,-0.1226 0.13,-0.08 0.043,0.0426 0.086,-0.1212 0.13,-0.0799 0.043,0.0414 0.087,-0.119 0.13,-0.0797 0.043,0.0393 0.087,-0.1162 0.13,-0.0796 0.043,0.0367 0.087,-0.1128 0.13,-0.0794 0.044,0.0333 0.087,-0.1089 0.13,-0.0793 0.044,0.0295 0.087,-0.1044 0.13,-0.0792 0.044,0.0252 0.087,-0.0994 0.131,-0.079 0.043,0.0204 0.086,-0.0942 0.13,-0.0789 0.043,0.0153 0.087,-0.0887 0.13,-0.0787 0.043,0.0099 0.087,-0.083 0.13,-0.0786 0.043,0.0043 0.087,-0.0772 0.13,-0.0785 0.044,-0.0012 0.087,-0.0714 0.13,-0.0783 0.044,-0.0068 0.087,-0.0658 0.13,-0.0781 0.044,-0.0124 0.087,-0.0605 0.131,-0.0781 0.043,-0.0176 0.086,-0.0553 0.13,-0.0778 0.043,-0.0226 0.086,-0.0506 0.13,-0.0778 0.043,-0.0271 0.087,-0.0463 0.13,-0.0776 0.043,-0.0313 0.087,-0.0425 0.13,-0.0774 0.043,-0.0349 0.087,-0.0394 0.13,-0.0773 0.044,-0.0379 0.087,-0.0369 0.13,-0.0772 0.044,-0.0403 0.087,-0.035 0.13,-0.077 0.044,-0.042 0.087,-0.0339 0.131,-0.0769 0.043,-0.0429 0.086,-0.0335 0.13,-0.0767 0.043,-0.0432 0.086,-0.0338 0.13,-0.0766 0.043,-0.0427 0.087,-0.0349 0.13,-0.0764 0.043,-0.0416 0.087,-0.0367 0.13,-0.0763 0.043,-0.0397 0.087,-0.0391 0.13,-0.0762 0.044,-0.0371 0.087,-0.0421 0.13,-0.076 0.044,-0.0339 0.087,-0.0458 0.13,-0.0759 0.044,-0.0301 0.087,-0.0499 0.131,-0.0757 0.043,-0.0258 0.086,-0.0545 0.13,-0.0756 0.043,-0.0211 0.087,-0.0594 0.13,-0.0754 0.043,-0.0161 0.087,-0.0646 0.13,-0.0753 0.043,-0.0107 0.087,-0.07 0.13,-0.0752 0.044,-0.0052 0.087,-0.0754 0.13,-0.075 0.044,4e-4 0.087,-0.0809 0.13,-0.0749 0.044,0.0061 0.087,-0.0863 0.131,-0.0747 0.043,0.0115 0.086,-0.0914 0.13,-0.0746 0.043,0.0169 0.086,-0.0963 0.13,-0.0744 0.043,0.0219 0.087,-0.1009 0.13,-0.0743 0.043,0.0265 0.087,-0.1049 0.13,-0.0742 0.043,0.0308 0.087,-0.1084 0.13,-0.074 0.044,0.0344 0.087,-0.1114 0.13,-0.0739 0.044,0.0376 0.087,-0.1137 0.13,-0.0737 0.044,0.04 0.087,-0.1154 0.131,-0.0736 0.043,0.0418 0.086,-0.1163 0.13,-0.0734 0.043,0.0429 0.086,-0.1165 0.13,-0.0733 0.043,0.0432 0.087,-0.116 0.13,-0.0732 0.043,0.0429 0.087,-0.1147 0.13,-0.073 0.043,0.0418 0.087,-0.1128 0.13,-0.0728 0.044,0.0399 0.087,-0.1102 0.13,-0.0728 0.044,0.0375 0.087,-0.1069 0.13,-0.0725 0.044,0.0343 0.087,-0.1032 0.131,-0.0725 0.043,0.0307 0.086,-0.0987 0.13,-0.0723 0.043,0.0265 0.086,-0.0939 0.13,-0.0721 0.043,0.0218 0.087,-0.0888 0.13,-0.072 0.043,0.0168 0.087,-0.0834 0.13,-0.0719 0.044,0.0115 0.087,-0.0777 0.13,-0.0717 0.044,0.006 0.087,-0.0719 0.13,-0.0716 0.044,4e-4 0.087,-0.0662 0.131,-0.0714 0.043,-0.0053 0.086,-0.0605 0.13,-0.0713 0.043,-0.0108 0.086,-0.055 0.13,-0.0712 0.043,-0.0161 0.087,-0.0498 0.13,-0.071 0.043,-0.0212 0.087,-0.0449 0.13,-0.0708 0.043,-0.0259 0.087,-0.0406 0.13,-0.0708 0.044,-0.0301 0.087,-0.0366 0.13,-0.0705 0.044,-0.034 0.087,-0.0333 0.13,-0.0705 0.044,-0.0371 0.087,-0.0306 0.131,-0.0703 0.043,-0.0396 0.086,-0.0285 0.13,-0.0701 0.043,-0.0416 0.086,-0.0272 0.13,-0.07 0.043,-0.0428 0.087,-0.0266 0.13,-0.0699 0.043,-0.0432 0.087,-0.0267 0.13,-0.0697 0.043,-0.0429 0.087,-0.0276 0.13,-0.0696 0.044,-0.0419 0.087,-0.0291 0.13,-0.0694 0.044,-0.0403 0.087,-0.0314 0.13,-0.0693 0.044,-0.0379 0.087,-0.0343 0.131,-0.0691 0.043,-0.0349 0.086,-0.0378 0.13,-0.069 0.043,-0.0313 0.086,-0.0418 0.13,-0.0689 0.043,-0.0271 0.087,-0.0462 0.13,-0.0687 0.043,-0.0225 0.087,-0.0511 0.13,-0.0686 0.044,-0.0175 0.087,-0.0562 0.13,-0.0684 0.044,-0.0122 0.087,-0.0615 0.13,-0.0683 0.044,-0.0068 0.087,-0.067 0.131,-0.0681 0.043,-0.0012 0.086,-0.0725 0.13,-0.068 0.043,0.0044 0.086,-0.0779 0.13,-0.0679 0.043,0.01 0.087,-0.0831 0.13,-0.0677 0.043,0.0154 0.087,-0.0881 0.13,-0.0676 0.043,0.0205 0.087,-0.0927 0.13,-0.0674 0.044,0.0252 0.087,-0.0969 0.13,-0.0673 0.044,0.0296 0.087,-0.1006 0.13,-0.0671 0.044,0.0334 0.087,-0.1037 0.131,-0.067 0.043,0.0367 0.086,-0.1063 0.13,-0.0669 0.043,0.0394 0.086,-0.1081 0.13,-0.0667 0.043,0.0413 0.087,-0.1092 0.13,-0.0666 0.043,0.0427 0.087,-0.1096 0.13,-0.0664 0.043,0.0432 0.087,-0.1093 0.13,-0.0663 0.044,0.0431 0.087,-0.1083 0.13,-0.0661 0.044,0.0421 0.087,-0.1066 0.13,-0.066 0.044,0.0405 0.087,-0.1041 0.131,-0.0659 0.043,0.0383 0.086,-0.101 0.13,-0.0657 0.043,0.0353 0.086,-0.0973 0.13,-0.0656 0.043,0.0318 0.087,-0.0931 0.13,-0.0654 0.043,0.0277 0.087,-0.0884 0.13,-0.0653 0.043,0.0232 0.087,-0.0833 0.13,-0.0651 0.044,0.0182 0.087,-0.078 0.13,-0.065 0.044,0.013 0.087,-0.0724 0.131,-0.0648 0.043,0.0075 0.086,-0.0667 0.13,-0.0648 0.043,0.002 0.086,-0.0608 0.13,-0.0645 0.043,-0.0037 0.087,-0.0552 0.13,-0.0644 0.043,-0.0093 0.087,-0.0497 0.13,-0.0643 0.043,-0.0146 0.087,-0.0444 0.13,-0.0642 0.044,-0.0197 0.087,-0.0393 0.13,-0.0639 0.044,-0.0247 0.087,-0.0349 0.13,-0.0639 0.044,-0.029 0.087,-0.0308 0.131,-0.0637 0.043,-0.0329 0.086,-0.0273 0.13,-0.0636 0.043,-0.0363 0.086,-0.0244 0.13,-0.0634 0.043,-0.039 0.087,-0.0222 0.13,-0.0633 0.043,-0.0411 0.087,-0.0206 0.13,-0.0631 0.043,-0.0425 0.087,-0.0198 0.13,-0.063 0.044,-0.0432 0.087,-0.0197 0.13,-0.0628 0.044,-0.0431 0.087,-0.0204 0.13,-0.0627 0.044,-0.0424 0.087,-0.0218 0.131,-0.0626 0.043,-0.0408 0.086,-0.0238 0.13,-0.0624 0.043,-0.0386 0.086,-0.0265 0.13,-0.0623 0.043,-0.0358 0.087,-0.0298 0.13,-0.0621 0.043,-0.0324 0.087,-0.0337 0.13,-0.062 0.043,-0.0283 0.087,-0.038 0.13,-0.0619 0.044,-0.0238 0.087,-0.0427 0.13,-0.0617 0.044,-0.0189 0.087,-0.0478 0.131,-0.0615 0.043,-0.0138 0.086,-0.0531 0.13,-0.0615 0.043,-0.0083 0.086,-0.0585 0.13,-0.0612 0.043,-0.0028 0.087,-0.064 0.13,-0.0612 0.043,0.0029 0.087,-0.0694 0.13,-0.0609 0.043,0.0084 0.087,-0.0748 0.13,-0.0609 0.044,0.0139 0.087,-0.0798 0.13,-0.0607 0.044,0.0191 0.087,-0.0845 0.13,-0.0605 0.044,0.0239 0.087,-0.0889 0.131,-0.0605 0.043,0.0285 0.086,-0.0926 0.13,-0.0602 0.043,0.0324 0.086,-0.096 0.13,-0.0602 0.043,0.0359 0.087,-0.0986 0.13,-0.0599 0.043,0.0386 0.087,-0.1007 0.13,-0.0599 0.043,0.0409 0.087,-0.102 0.13,-0.0597 0.044,0.0424 0.087,-0.1027 0.13,-0.0595 0.044,0.0431 0.087,-0.1026 0.13,-0.0595 0.044,0.0432 0.087,-0.1017 0.131,-0.0592 0.043,0.0424 0.086,-0.1002 0.13,-0.0592 0.043,0.0411 0.086,-0.0979 0.13,-0.0589 0.043,0.0389 0.087,-0.0951 0.13,-0.0589 0.043,0.0362 0.087,-0.0915 0.13,-0.0587 0.043,0.0329 0.087,-0.0875 0.13,-0.0585 0.044,0.0289 0.087,-0.0829 0.13,-0.0584 0.044,0.0245 0.087,-0.078 0.13,-0.0583 0.044,0.0197 0.087,-0.0727 0.131,-0.0581 0.043,0.0145 0.086,-0.0671 0.13,-0.058 0.043,0.0091 0.087,-0.0614 0.13,-0.0579 0.043,0.0036 0.087,-0.0556 0.13,-0.0577 0.043,-0.002 0.087,-0.0498 0.13,-0.0575 0.044,-0.0077 0.087,-0.0443 0.13,-0.0574 0.044,-0.0131 0.087,-0.0389 0.13,-0.0573 0.044,-0.0183 0.087,-0.0338 0.131,-0.0571 0.043,-0.0233 0.086,-0.0292 0.13,-0.057 0.043,-0.0278 0.086,-0.025 0.13,-0.0568 0.043,-0.0319 0.087,-0.0213 0.13,-0.0567 0.043,-0.0354 0.087,-0.0183 0.13,-0.0566 0.043,-0.0383 0.087,-0.0158 0.13,-0.0564 0.044,-0.0406 0.087,-0.0141 0.13,-0.0562 0.044,-0.0422 0.087,-0.0131 0.13,-0.0562 0.044,-0.043 0.087,-0.0127 0.131,-0.0559 0.043,-0.0432 0.086,-0.0133 0.13,-0.0559 0.043,-0.0426 0.086,-0.0144 0.13,-0.0557 0.043,-0.0413 0.087,-0.0162 0.13,-0.0555 0.043,-0.0393 0.087,-0.0188 0.13,-0.0554 0.043,-0.0367 0.087,-0.0219 0.13,-0.0553 0.044,-0.0333 0.087,-0.0256 0.13,-0.0551 0.044,-0.0295 0.087,-0.0298 0.13,-0.055 0.044,-0.0251 0.087,-0.0344 0.131,-0.0548 0.043,-0.0204 0.086,-0.0394 0.13,-0.0547 0.043,-0.0153 0.087,-0.0447 0.13,-0.0546 0.043,-0.0098 0.087,-0.05 0.13,-0.0544 0.043,-0.0043 0.087,-0.0555 0.13,-0.0542 0.044,0.0013 0.087,-0.061 0.13,-0.0541 0.044,0.0068 0.087,-0.0664 0.13,-0.054 0.044,0.0123 0.087,-0.0715 0.131,-0.0538 0.043,0.0176 0.086,-0.0763 0.13,-0.0537 0.043,0.0226 0.086,-0.0808 0.13,-0.0536 0.043,0.0272 0.087,-0.0847 0.13,-0.0534 0.043,0.0313 0.087,-0.0882 0.13,-0.0532 0.043,0.0349 0.087,-0.0911 0.13,-0.0531 0.044,0.0379 0.087,-0.0933 0.13,-0.053 0.044,0.0403 0.087,-0.0948 0.13,-0.0529 0.044,0.042 0.087,-0.0956 0.131,-0.0526 0.043,0.0429 0.086,-0.0958 0.13,-0.0526 0.043,0.0432 0.086,-0.0951 0.13,-0.0524 0.043,0.0428 0.087,-0.0938 0.13,-0.0522 0.043,0.0415 0.087,-0.0918 0.13,-0.0522 0.043,0.0397 0.087,-0.089 0.13,-0.0519 0.044,0.037 0.087,-0.0857 0.13,-0.0519 0.044,0.0339 0.087,-0.0817 0.13,-0.0516 0.044,0.0301 0.087,-0.0774 0.131,-0.0516 0.043,0.0258 0.086,-0.0725 0.13,-0.0514 0.043,0.0211 0.086,-0.0672 0.13,-0.0512 0.043,0.016 0.087,-0.0618 0.13,-0.0511 0.043,0.0106 0.087,-0.0561 0.13,-0.051 0.044,0.0051 0.087,-0.0504 0.13,-0.0508 0.044,-5e-4 0.087,-0.0446 0.13,-0.0507 0.044,-0.0061 0.087,-0.039 0.131,-0.0506 0.043,-0.0115 0.086,-0.0335 0.13,-0.0504 0.043,-0.0169 0.086,-0.0283 0.13,-0.0502 0.043,-0.0219 0.087,-0.0236 0.13,-0.0501 0.043,-0.0266 0.087,-0.0192 0.13,-0.05 0.043,-0.0308 0.087,-0.0154 0.13,-0.0498 0.044,-0.0345 0.087,-0.0121 0.13,-0.0497 0.044,-0.0375 0.087,-0.0095 0.13,-0.0495 0.044,-0.04 0.087,-0.0076 0.131,-0.0494 0.043,-0.0418 0.086,-0.0064 0.13,-0.0493 0.043,-0.0429 0.086,-0.0059 0.13,-0.0491 0.043,-0.0432 0.087,-0.0061 0.13,-0.049 0.043,-0.0428 0.087,-0.007 0.13,-0.0488 0.043,-0.0417 0.087,-0.0087 0.13,-0.0487 0.044,-0.0399 0.087,-0.011 0.13,-0.0485 0.044,-0.0375 0.087,-0.014 0.13,-0.0484 0.044,-0.0343 0.087,-0.0176 0.131,-0.0482 0.043,-0.0307 0.086,-0.0217 0.13,-0.0481 0.043,-0.0265 0.086,-0.0262 0.13,-0.048 0.043,-0.0218 0.087,-0.0311 0.13,-0.0478 0.043,-0.0168 0.087,-0.0363 0.13,-0.0477 0.044,-0.0114 0.087,-0.0416 0.13,-0.0475 0.044,-0.006 0.087,-0.0471 0.13,-0.0474 0.044,-3e-4 0.087,-0.0526 0.131,-0.0473 0.043,0.0053 0.086,-0.0579 0.13,-0.0471 0.043,0.0108 0.086,-0.0631 0.13,-0.0469 0.043,0.0161 0.087,-0.0681 0.13,-0.0469 0.043,0.0213 0.087,-0.0726 0.13,-0.0466 0.043,0.0259 0.087,-0.0768 0.13,-0.0466 0.044,0.0302 0.087,-0.0803 0.13,-0.0464 0.044,0.034 0.087,-0.0833 0.13,-0.0462 0.044,0.0371 0.087,-0.0858 0.131,-0.0461 0.043,0.0397 0.086,-0.0875 0.13,-0.046 0.043,0.0416 0.086,-0.0885 0.13,-0.0458 0.043,0.0428 0.087,-0.0889 0.13,-0.0457 0.043,0.0433 0.087,-0.0884 0.13,-0.0455 0.043,0.043 0.087,-0.0873 0.13,-0.0454 0.044,0.042 0.087,-0.0855 0.13,-0.0452 0.044,0.0402 0.087,-0.083 0.13,-0.0451 0.044,0.0378 0.087,-0.0798 0.131,-0.045 0.043,0.0349 0.086,-0.076 0.13,-0.0448 0.043,0.0312 0.086,-0.0717 0.13,-0.0447 0.043,0.0271 0.087,-0.067 0.13,-0.0445 0.043,0.0225 0.087,-0.0619 0.13,-0.0444 0.043,0.0175 0.087,-0.0564 0.13,-0.0442 0.044,0.0122 0.087,-0.0508 0.13,-0.0441 0.044,0.0067 0.087,-0.0451 0.131,-0.044 0.043,0.0012 0.086,-0.0393 0.13,-0.0438 0.043,-0.0045 0.086,-0.0336 0.13,-0.0437 0.043,-0.01 0.087,-0.0281 0.13,-0.0435 0.043,-0.0154 0.087,-0.0228 0.13,-0.0434 0.043,-0.0205 0.087,-0.0179 0.13,-0.0432 0.044,-0.0253 0.087,-0.0135 0.13,-0.0431 0.044,-0.0296 0.087,-0.0095 0.13,-0.043 0.044,-0.0334 0.087,-0.006 0.131,-0.0428 0.043,-0.0367 0.086,-0.0033 0.13,-0.0426 0.043,-0.0394 0.086,-0.0012 0.13,-0.0426 0.043,-0.0413 0.087,3e-4 0.13,-0.0423 0.043,-0.0427 0.087,9e-4 0.13,-0.0423 0.043,-0.0432 0.087,10e-4 0.13,-0.0421 0.044,-0.043 0.087,2e-4 0.13,-0.0419 0.044,-0.0422 0.087,-0.0013 0.13,-0.0418 0.044,-0.0406 0.087,-0.0035 0.131,-0.0417 0.043,-0.0382 0.086,-0.0062 0.13,-0.0415 0.043,-0.0353 0.086,-0.0096 0.13,-0.0414 0.043,-0.0318 0.087,-0.0136 0.13,-0.0412 0.043,-0.0277 0.087,-0.018 0.13,-0.0411 0.043,-0.0232 0.087,-0.0228 0.13,-0.041 0.044,-0.0182 0.087,-0.0278 0.13,-0.0408 0.044,-0.013 0.087,-0.0332 0.131,-0.0407 0.043,-0.0075 0.086,-0.0386 0.13,-0.0405 0.043,-0.0019 0.086,-0.0441 0.13,-0.0404 0.043,0.0037 0.087,-0.0495 0.13,-0.0402 0.043,0.0093 0.087,-0.0547 0.13,-0.0401 0.043,0.0147 0.087,-0.0597 0.13,-0.0399 0.044,0.0198 0.087,-0.0645 0.13,-0.0398 0.044,0.0246 0.087,-0.0687 0.13,-0.0397 0.044,0.029 0.087,-0.0725 0.131,-0.0395 0.043,0.0329 0.086,-0.0757 0.13,-0.0394 0.043,0.0363 0.086,-0.0783 0.13,-0.0392 0.043,0.039 0.087,-0.0802 0.13,-0.0391 0.043,0.0411 0.087,-0.0815 0.13,-0.039 0.043,0.0425 0.087,-0.0819 0.13,-0.0388 0.044,0.0432 0.087,-0.0817 0.13,-0.0386 0.044,0.0431 0.087,-0.0809 0.13,-0.0385 0.044,0.0423 0.087,-0.0792 0.131,-0.0384 0.043,0.0408 0.086,-0.0769 0.13,-0.0382 0.043,0.0386 0.086,-0.0739 0.13,-0.0381 0.043,0.0357 0.087,-0.0703 0.13,-0.038 0.043,0.0323 0.087,-0.0661 0.13,-0.0378 0.043,0.0283 0.087,-0.0615 0.13,-0.0376 0.044,0.0238 0.087,-0.0565 0.13,-0.0376 0.044,0.019 0.087,-0.0511 0.13,-0.0373 0.044,0.0137 0.087,-0.0456 0.131,-0.0373 0.043,0.0083 0.086,-0.0398 0.13,-0.037 0.043,0.0027 0.087,-0.0341 0.13,-0.037 0.043,-0.0029 0.087,-0.0283 0.13,-0.0368 0.043,-0.0085 0.087,-0.0227 0.13,-0.0366 0.044,-0.014 0.087,-0.0175 0.13,-0.0366 0.044,-0.0191 0.087,-0.0124 0.13,-0.0363 0.044,-0.024 0.087,-0.0078 0.131,-0.0363 0.043,-0.0284 0.086,-0.0036 0.13,-0.036 0.043,-0.0325 0.086,-10e-5 0.13,-0.036 0.043,-0.0358 0.087,0.0029 0.13,-0.0358 0.043,-0.0387 0.087,0.0052 0.13,-0.0356 0.043,-0.0409 0.087,0.0068 0.13,-0.0355 0.044,-0.0424 0.087,0.0077 0.13,-0.0354 0.044,-0.0431 0.087,0.0079 0.13,-0.0352 0.044,-0.0432 0.087,0.0073 0.131,-0.0351 0.043,-0.0425 0.086,0.0061 0.13,-0.035 0.043,-0.041 0.086,0.0042 0.13,-0.0348 0.043,-0.0389 0.087,0.0016 0.13,-0.0346 0.043,-0.0362 0.087,-0.0017 0.13,-0.0345 0.043,-0.0328 0.087,-0.0055 0.13,-0.0344 0.044,-0.0289 0.087,-0.0097 0.13,-0.0342 0.044,-0.0245 0.087,-0.0145 0.13,-0.0341 0.044,-0.0196 0.087,-0.0195 0.131,-0.0339 0.043,-0.0145 0.086,-0.0248 0.13,-0.0338 0.043,-0.0091 0.087,-0.0302 0.13,-0.0337 0.043,-0.0035 0.087,-0.0356 0.13,-0.0335 0.043,0.0021 0.087,-0.041 0.13,-0.0334 0.044,0.0077 0.087,-0.0463 0.13,-0.0332 0.044,0.0132 0.087,-0.0514 0.13,-0.0331 0.044,0.0184 0.087,-0.0562 0.131,-0.0329 0.043,0.0233 0.086,-0.0606 0.13,-0.0328 0.043,0.0279 0.086,-0.0645 0.13,-0.0326 0.043,0.0319 0.087,-0.0679 0.13,-0.0325 0.043,0.0354 0.087,-0.0707 0.13,-0.0324 0.043,0.0383 0.087,-0.0728 0.13,-0.0322 0.044,0.0406 0.087,-0.0743 0.13,-0.0321 0.044,0.0422 0.087,-0.075 0.13,-0.0319 0.044,0.043 0.087,-0.075 0.131,-0.0318 0.043,0.0432 0.086,-0.0743 0.13,-0.0317 0.043,0.0426 0.086,-0.0728 0.13,-0.0315 0.043,0.0413 0.087,-0.0706 0.13,-0.0313 0.043,0.0393 0.087,-0.0679 0.13,-0.0313 0.043,0.0367 0.087,-0.0644 0.13,-0.031 0.044,0.0333 0.087,-0.0604 0.13,-0.031 0.044,0.0295 0.087,-0.0559 0.13,-0.0307 0.044,0.0251 0.087,-0.051 0.131,-0.0307 0.043,0.0204 0.086,-0.0457 0.13,-0.0305 0.043,0.0152 0.086,-0.0402 0.13,-0.0304 0.043,0.0099 0.087,-0.0345 0.13,-0.0302 0.043,0.0043 0.087,-0.0287 0.13,-0.03 0.044,-0.0014 0.087,-0.0231 0.13,-0.03 0.044,-0.0069 0.087,-0.0174 0.13,-0.0298 0.044,-0.0124 0.087,-0.0119 0.131,-0.0296 0.043,-0.0177 0.086,-0.0069 0.13,-0.0295 0.043,-0.0226 0.086,-0.0021 0.13,-0.0294 0.043,-0.0272 0.087,0.0022 0.13,-0.0292 0.043,-0.0313 0.087,0.0059 0.13,-0.029 0.043,-0.035 0.087,0.009 0.13,-0.029 0.044,-0.0379 0.087,0.0116 0.13,-0.0288 0.044,-0.0403 0.087,0.0134 0.13,-0.0286 0.044,-0.042 0.087,0.0145 0.131,-0.0285 0.043,-0.043 0.086,0.0149 0.13,-0.0284 0.043,-0.0432 0.086,0.0146 0.13,-0.0282 0.043,-0.0427 0.087,0.0135 0.13,-0.028 0.043,-0.0416 0.087,0.0117 0.13,-0.028 0.043,-0.0396 0.087,0.0093 0.13,-0.0278 0.044,-0.037 0.087,0.0062 0.13,-0.0276 0.044,-0.0338 0.087,0.0026 0.13,-0.0275 0.044,-0.03 0.087,-0.0016 0.131,-0.0273 0.043,-0.0258 0.086,-0.0062 0.13,-0.0273 0.043,-0.021 0.086,-0.011 0.13,-0.027 0.043,-0.016 0.087,-0.0163 0.13,-0.0269 0.043,-0.0107 0.087,-0.0217 0.13,-0.0268 0.044,-0.0051 0.087,-0.0272 0.13,-0.0267 0.044,5e-4 0.087,-0.0326 0.13,-0.0265 0.044,0.0062 0.087,-0.0379 0.131,-0.0263 0.043,0.0116 0.086,-0.0431 0.13,-0.0262 0.043,0.0169 0.086,-0.048 0.13,-0.0261 0.043,0.022 0.087,-0.0525 0.13,-0.0259 0.043,0.0266 0.087,-0.0566 0.13,-0.0258 0.043,0.0308 0.087,-0.0601 0.13,-0.0256 0.044,0.0344 0.087,-0.0631 0.13,-0.0255 0.044,0.0375 0.087,-0.0654 0.13,-0.0254 0.044,0.0401 0.087,-0.067 0.131,-0.0252 0.043,0.0418 0.086,-0.0679 0.13,-0.025 0.043,0.0428 0.086,-0.0682 0.13,-0.025 0.043,0.0433 0.087,-0.0676 0.13,-0.0247 0.043,0.0428 0.087,-0.0664 0.13,-0.0247 0.043,0.0418 0.087,-0.0644 0.13,-0.0245 0.044,0.04 0.087,-0.0618 0.13,-0.0243 0.044,0.0374 0.087,-0.0585 0.13,-0.0242 0.044,0.0343 0.087,-0.0547 0.131,-0.0241 0.043,0.0306 0.086,-0.0503 0.13,-0.0239 0.043,0.0264 0.086,-0.0455 0.13,-0.0238 0.043,0.0218 0.087,-0.0403 0.13,-0.0236 0.043,0.0167 0.087,-0.0349 0.13,-0.0235 0.043,0.0114 0.087,-0.0292 0.13,-0.0233 0.044,0.0058 0.087,-0.0235 0.13,-0.0232 0.044,2e-4 0.087,-0.0178 0.131,-0.0231 0.043,-0.0053 0.086,-0.0121 0.13,-0.0229 0.043,-0.0109 0.086,-0.0066 0.13,-0.0228 0.043,-0.0162 0.087,-0.0014 0.13,-0.0226 0.043,-0.0213 0.087,0.0034 0.13,-0.0225 0.043,-0.026 0.087,0.0079 0.13,-0.0224 0.044,-0.0302 0.087,0.0118 0.13,-0.0222 0.044,-0.0339 0.087,0.0151 0.13,-0.022 0.044,-0.0372 0.087,0.0178 0.131,-0.0219 0.043,-0.0398 0.086,0.0198 0.13,-0.0218 0.043,-0.0416 0.086,0.0211 0.13,-0.0216 0.043,-0.0428 0.087,0.0217 0.13,-0.0215 0.043,-0.0433 0.087,0.0216 0.13,-0.0214 0.043,-0.0429 0.087,0.0208 0.13,-0.0212 0.044,-0.0419 0.087,0.0192 0.13,-0.021 0.044,-0.0403 0.087,0.0169 0.13,-0.0209 0.044,-0.0379 0.087,0.014 0.131,-0.0208 0.043,-0.0348 0.086,0.0106 0.13,-0.0206 0.043,-0.0312 0.086,0.0065 0.13,-0.0205 0.043,-0.0271 0.087,0.0021 0.13,-0.0204 0.043,-0.0224 0.087,-0.0027 0.13,-0.0202 0.043,-0.0174 0.087,-0.0078 0.13,-0.02 0.044,-0.0122 0.087,-0.0132 0.13,-0.0199 0.044,-0.0067 0.087,-0.0187 0.131,-0.0198 0.043,-0.0011 0.086,-0.0242 0.13,-0.0196 0.043,0.0045 0.086,-0.0296 0.13,-0.0195 0.043,0.0101 0.087,-0.0348 0.13,-0.0193 0.043,0.0154 0.087,-0.0398 0.13,-0.0192 0.043,0.0205 0.087,-0.0444 0.13,-0.0191 0.044,0.0253 0.087,-0.0485 0.13,-0.0189 0.044,0.0297 0.087,-0.0522 0.13,-0.0188 0.044,0.0335 0.087,-0.0553 0.131,-0.0186 0.043,0.0368 0.086,-0.0579 0.13,-0.0185 0.043,0.0394 0.086,-0.0597 0.13,-0.0183 0.043,0.0414 0.087,-0.0608 0.13,-0.0182 0.043,0.0427 0.087,-0.0613 0.13,-0.018 0.043,0.0432 0.087,-0.061 0.13,-0.018 0.044,0.0431 0.087,-0.0599 0.13,-0.0177 0.044,0.0421 0.087,-0.0582 0.13,-0.0176 0.044,0.0405 0.087,-0.0557 0.131,-0.0175 0.043,0.0382 0.086,-0.0526 0.13,-0.0174 0.043,0.0353 0.086,-0.0489 0.13,-0.0171 0.043,0.0317 0.087,-0.0448 0.13,-0.0171 0.043,0.0277 0.087,-0.04 0.13,-0.0169 0.043,0.0231 0.087,-0.0349 0.13,-0.0168 0.044,0.0182 0.087,-0.0295 0.13,-0.0166 0.044,0.0129 0.087,-0.0239 0.13,-0.0165 0.044,0.0075 0.087,-0.0182 0.131,-0.0163 0.043,0.0019 0.086,-0.0124 0.13,-0.0162 0.043,-0.0037 0.087,-0.0067 0.13,-0.016 0.043,-0.0093 0.087,-0.0012 0.13,-0.0159 0.043,-0.0147 0.087,0.0041 0.13,-0.0158 0.044,-0.0198 0.087,0.009 0.13,-0.0156 0.044,-0.0247 0.087,0.0136 0.13,-0.0155 0.044,-0.02905 0.087,0.0176 0.131,-0.01532 0.043,-0.03297 0.086,0.02112 0.13,-0.01519 0.043,-0.03632 0.086,0.02401 0.13,-0.01505 0.043,-0.03905 0.087,0.02623 0.13,-0.0149 0.043,-0.04113 0.087,0.02775 0.13,-0.01476 0.043,-0.04251 0.087,0.02856 0.13,-0.01461 0.044,-0.04318 0.087,0.02863 0.13,-0.01448 0.044,-0.0431 0.087,0.02798 0.13,-0.01433 0.044,-0.0423 0.087,0.02661 0.131,-0.01418 0.043,-0.04079 0.086,0.02454 0.13,-0.01405 0.043,-0.03858 0.086,0.02184 0.13,-0.0139 0.043,-0.03573 0.087,0.01852 0.13,-0.01375 0.043,-0.03228 0.087,0.01465 0.13,-0.01362 0.043,-0.02826 0.087,0.01031 0.13,-0.01347 0.044,-0.02378 0.087,0.0056 0.13,-0.01333 0.044,-0.01889 0.087,5.1e-4 0.13,-0.01318 0.044,-0.01369 0.087,-0.0048 0.131,-0.01304 0.043,-0.0083 0.086,-0.01022 0.13,-0.0129 0.043,-0.0027 0.087,-0.0157 0.13,-0.01276 0.043,0.0029 0.087,-0.02113 0.13,-0.01261 0.043,0.0085 0.087,-0.02641 0.13,-0.01247 0.044,0.01394 0.087,-0.03146 0.13,-0.01233 0.044,0.01914 0.087,-0.03618 0.13,-0.01218 0.044,0.02401 0.087,-0.04051 0.131,-0.01204 0.043,0.02847 0.086,-0.04434 0.13,-0.01189 0.043,0.03244 0.086,-0.04764 0.13,-0.01176 0.043,0.03588 0.087,-0.05032 0.13,-0.01161 0.043,0.03871 0.087,-0.05235 0.13,-0.01147 0.043,0.04088 0.087,-0.05368 0.13,-0.01132 0.044,0.04236 0.087,-0.0543 0.13,-0.01118 0.044,0.04312 0.087,-0.0542 0.13,-0.01104 0.044,0.04316 0.087,-0.05336 0.131,-0.01089 0.043,0.04246 0.086,-0.05181 0.13,-0.01076 0.043,0.04105 0.086,-0.04955 0.13,-0.0106 0.043,0.03894 0.087,-0.04665 0.13,-0.01047 0.043,0.03618 0.087,-0.04312 0.13,-0.01032 0.043,0.0328 0.087,-0.03905 0.13,-0.01018 0.044,0.02886 0.087,-0.03448 0.13,-0.01004 0.044,0.02445 0.087,-0.0295 0.13,-0.0099 0.044,0.01961 0.087,-0.0242 0.131,-0.0098 0.043,0.01445 0.086,-0.01864 0.13,-0.0096 0.043,0.009 0.086,-0.01294 0.13,-0.0095 0.043,0.0035 0.087,-0.0072 0.13,-0.0093 0.043,-0.0022 0.087,-0.0014 0.13,-0.0092 0.044,-0.0077 0.087,0.0041 0.13,-0.009 0.044,-0.01319 0.087,0.0095 0.13,-0.0089 0.044,-0.01842 0.087,0.01458 0.131,-0.0088 0.043,-0.02334 0.086,0.01925 0.13,-0.0086 0.043,-0.02786 0.086,0.02346 0.13,-0.0085 0.043,-0.03192 0.087,0.02711 0.13,-0.0083 0.043,-0.03543 0.087,0.03017 0.13,-0.0082 0.043,-0.03835 0.087,0.03258 0.13,-0.008 0.044,-0.04061 0.087,0.03431 0.13,-0.0079 0.044,-0.04219 0.087,0.03532 0.13,-0.0077 0.044,-0.04306 0.087,0.03559 0.131,-0.0076 0.043,-0.0432 0.086,0.03514 0.13,-0.0075 0.043,-0.04261 0.086,0.03397 0.13,-0.0073 0.043,-0.04129 0.087,0.03211 0.13,-0.0072 0.043,-0.03929 0.087,0.02957 0.13,-0.007 0.043,-0.0366 0.087,0.02643 0.13,-0.0069 0.044,-0.03332 0.087,0.02271 0.13,-0.0068 0.044,-0.02945 0.087,0.0185 0.13,-0.0066 0.044,-0.0251 0.087,0.01386 0.131,-0.0065 0.043,-0.02032 0.086,0.0089 0.13,-0.0063 0.043,-0.0152 0.086,0.0036 0.13,-0.0062 0.043,-0.0098 0.087,-0.0018 0.13,-0.006 0.043,-0.0043 0.087,-0.0072 0.13,-0.0059 0.044,0.0014 0.087,-0.01268 0.13,-0.0057 0.044,0.0069 0.087,-0.01802 0.13,-0.0056 0.044,0.01242 0.087,-0.02315 0.131,-0.0055 0.043,0.0177 0.086,-0.02797 0.13,-0.0053 0.043,0.02266 0.086,-0.03242 0.13,-0.0052 0.043,0.02725 0.087,-0.0364 0.13,-0.005 0.043,0.03138 0.087,-0.03985 0.13,-0.0049 0.043,0.03497 0.087,-0.04271 0.13,-0.0047 0.044,0.03797 0.087,-0.04493 0.13,-0.0046 0.044,0.04033 0.087,-0.04646 0.13,-0.0044 0.044,0.04201 0.087,-0.04729 0.131,-0.0043 0.043,0.04298 0.086,-0.04739 0.13,-0.0042 0.043,0.04322 0.086,-0.04676 0.13,-0.004 0.043,0.04274 0.087,-0.0454 0.13,-0.0039 0.043,0.04152 0.087,-0.04334 0.13,-0.0037 0.043,0.03961 0.087,-0.04062 0.13,-0.0036 0.044,0.03702 0.087,-0.03727 0.13,-0.0035 0.044,0.03381 0.087,-0.03335 0.13,-0.0033 0.044,0.03003 0.087,-0.02892 0.131,-0.0032 0.043,0.02575 0.086,-0.02404 0.13,-0.003 0.043,0.02102 0.086,-0.01882 0.13,-0.0029 0.043,0.01594 0.087,-0.01333 0.13,-0.0027 0.043,0.01059 0.087,-0.0077 0.13,-0.0026 0.043,0.0051 0.087,-0.0019 0.13,-0.0024 0.044,-5.6e-4 0.087,0.0038 0.13,-0.0023 0.044,-0.0062 0.087,0.0095 0.131,-0.0022 0.043,-0.01165 0.086,0.01494 0.13,-0.002 0.043,-0.01696 0.086,0.0201 0.13,-0.0019 0.043,-0.02197 0.087,0.02489 0.13,-0.0017 0.043,-0.02662 0.087,0.02922 0.13,-0.0016 0.043,-0.03082 0.087,0.03304 0.13,-0.0014 0.044,-0.03449 0.087,0.03627 0.13,-0.0013 0.044,-0.03758 0.087,0.03888 0.13,-0.0012 0.044,-0.04004 0.087,0.0408 0.131,-0.001 0.043,-0.04181 0.086,0.04201 0.13,-8.8e-4 0.043,-0.04288 0.086,0.0425 0.13,-7.3e-4 0.043,-0.04323 0.087,0.04226 0.13,-5.9e-4 0.043,-0.04285 0.087,0.04129 0.13,-4.5e-4 0.043,-0.04173 0.087,0.03962 0.13,-3e-4 0.044,-0.03992 0.087,0.03727 0.13,-1.6e-4 0.044,-0.03743 0.087,0.03429 0.13,-2e-5 0.044,-0.03431 0.087,0.03073 0.131,1.3e-4 0.043,-0.03061 0.086,0.02665 0.13,2.7e-4 0.043,-0.02639 0.086,0.02212 0.13,4.1e-4 0.043,-0.02172 0.087,0.01723 0.13,5.5e-4 0.043,-0.01668 0.087,0.01207 0.13,7e-4 0.043,-0.01136 0.087,0.0067 0.13,8.4e-4 0.044,-0.0058 0.087,0.0012 0.13,9.9e-4 0.044,-2.5e-4 0.087,-0.0042 0.131,0.0011 0.043,0.0054 0.086,-0.0096 0.13,0.0013 0.043,0.01089 0.086,-0.01481 0.13,0.0014 0.043,0.01622 0.087,-0.01973 0.13,0.0016 0.043,0.02129 0.087,-0.02428 0.13,0.0017 0.043,0.02599 0.087,-0.0284 0.13,0.0018 0.044,0.03025 0.087,-0.03202 0.13,0.002 0.044,0.03401 0.087,-0.03505 0.13,0.0021 0.044,0.03718 0.087,-0.03745 0.131,0.0023 0.043,0.03972 0.086,-0.03919 0.13,0.0024 0.043,0.04161 0.086,-0.04022 0.13,0.0026 0.043,0.04278 0.087,-0.04053 0.13,0.0027 0.043,0.04323 0.087,-0.0401 0.13,0.0029 0.043,0.04294 0.087,-0.03895 0.13,0.003 0.044,0.04194 0.087,-0.03709 0.13,0.0031 0.044,0.04022 0.087,-0.03455 0.13,0.0033 0.044,0.03782 0.087,-0.03137 0.131,0.0034 0.043,0.03478 0.086,-0.02761 0.13,0.0036 0.043,0.03116 0.086,-0.02331 0.13,0.0037 0.043,0.02701 0.087,-0.01855 0.13,0.0038 0.043,0.0224 0.087,-0.01343 0.13,0.004 0.043,0.01741 0.087,-0.008 0.13,0.0041 0.044,0.01213 0.087,-0.0024 0.13,0.0043 0.044,0.0066 0.087,0.0034 0.13,0.0044 0.044,10e-4 0.087,0.0091 0.131,0.0046 0.043,-0.0046 0.086,0.01481 0.13,0.0047 0.043,-0.01011 0.087,0.02033 0.13,0.0049 0.043,-0.01548 0.087,0.02558 0.13,0.005 0.043,-0.02058 0.087,0.03048 0.13,0.0051 0.044,-0.02535 0.087,0.03495 0.13,0.0053 0.044,-0.02968 0.087,0.03892 0.13,0.0054 0.044,-0.03351 0.087,0.04233 0.131,0.0056 0.043,-0.03677 0.086,0.04512 0.13,0.0057 0.043,-0.03941 0.086,0.04723 0.13,0.0058 0.043,-0.04138 0.087,0.04865 0.13,0.006 0.043,-0.04265 0.087,0.04935 0.13,0.0061 0.043,-0.04321 0.087,0.04931 0.13,0.0063 0.044,-0.04303 0.087,0.04855 0.13,0.0064 0.044,-0.04212 0.087,0.04708 0.13,0.0066 0.044,-0.04051 0.087,0.04491 0.131,0.0067 0.043,-0.03821 0.086,0.04211 0.13,0.0069 0.043,-0.03526 0.086,0.03871 0.13,0.007 0.043,-0.03172 0.087,0.03476 0.13,0.0071 0.043,-0.02763 0.087,0.03037 0.13,0.0073 0.043,-0.02309 0.087,0.02556 0.13,0.0074 0.044,-0.01814 0.087,0.02046 0.13,0.0076 0.044,-0.0129 0.087,0.01514 0.13,0.0077 0.044,-0.0074 0.087,0.0097 0.131,0.0078 0.043,-0.0018 0.086,0.0042 0.13,0.008 0.043,0.0038 0.087,-0.0012 0.13,0.0081 0.043,0.0093 0.087,-0.0064 0.13,0.0083 0.043,0.01474 0.087,-0.01145 0.13,0.0084 0.044,0.01988 0.087,-0.01612 0.13,0.0086 0.044,0.0247 0.087,-0.02038 0.13,0.0087 0.044,0.02909 0.087,-0.02414 0.131,0.0089 0.043,0.03299 0.086,-0.02734 0.13,0.009 0.043,0.03634 0.086,-0.02993 0.13,0.0091 0.043,0.03907 0.087,-0.03186 0.13,0.0093 0.043,0.04114 0.087,-0.03309 0.13,0.0094 0.043,0.04252 0.087,-0.0336 0.13,0.0096 0.044,0.04317 0.087,-0.03339 0.13,0.0097 0.044,0.0431 0.087,-0.03244 0.13,0.0099 0.044,0.0423 0.087,-0.03078 0.131,0.01 0.043,0.04078 0.086,-0.02843 0.13,0.01014 0.043,0.03858 0.086,-0.02542 0.13,0.01029 0.043,0.03571 0.087,-0.02182 0.13,0.01043 0.043,0.03225 0.087,-0.01766 0.13,0.01057 0.043,0.02824 0.087,-0.01303 0.13,0.01072 0.044,0.02375 0.087,-0.008 0.13,0.01086 0.044,0.01886 0.087,-0.0026 0.13,0.011 0.044,0.01366 0.087,0.0029 0.131,0.01115 0.043,0.0082 0.086,0.0086 0.13,0.01129 0.043,0.0026 0.086,0.01441 0.13,0.01143 0.043,-0.003 0.087,0.02013 0.13,0.01158"
       title="0.00424 * (x) * (x) - 1.0974 * (x) + 71.9903"
       id="path19" />
    <rect
       style="fill:none;fill-opacity:0.3;stroke:none;stroke-width:1.165;stroke-dasharray:none;stroke-opacity:0.3"
       id="rect2"
       width="160"
       height="79.999992"
       x="45"
       y="5.000001" />
    <rect
       style="fill:none;fill-opacity:0.3;stroke:none;stroke-width:1.165;stroke-dasharray:none;stroke-opacity:0.3"
       id="rect3"
       width="55"
       height="54.999996"
       x="45"
       y="5.000001" />
    <rect
       style="fill:none;fill-opacity:0.3;stroke:none;stroke-width:1.165;stroke-dasharray:none;stroke-opacity:0.3"
       id="rect4"
       width="160"
       height="79.999992"
       x="45"
       y="5.000001" />
    <path
       style="fill:#ffffff;stroke:#000000;stroke-width:0.3;stroke-dasharray:none;stroke-opacity:1"
       d="M 50.000001,75 H 200"
       id="path238"
       sodipodi:nodetypes="cc" />
    <path
       style="fill:none;stroke:#000000;stroke-width:0.3;stroke-dasharray:none;stroke-opacity:1"
       d="M 60,70 110,30 190,9.9999998"
       id="path240"
       sodipodi:nodetypes="ccc" />
    <ellipse
       style="fill:#ffffff;fill-opacity:1;stroke:#000000;stroke-width:0.264583;stroke-opacity:1"
       id="path20-2-8"
       cx="97.491333"
       cy="40.000004"
       rx="0.53934622"
       ry="0.50563705" />
    <ellipse
       style="fill:#ffffff;fill-opacity:1;stroke:#000000;stroke-width:0.264583;stroke-opacity:1"
       id="path20-2"
       cx="130"
       cy="25.00001"
       rx="0.53934622"
       ry="0.50563705" />
  </g>
</svg>
